<svg width="582" height="494" viewBox="0 0 582 494" fill="none" xmlns="http://www.w3.org/2000/svg">
<g clip-path="url(#clip0_6452_12)">
<path d="M73.0984 463.994C73.0984 463.994 -24.7235 369.417 85.1874 245.408C195.099 121.399 351.039 90.4517 441.362 138.247C531.685 186.042 596.536 379.499 488.801 457.44L73.0984 463.994Z" fill="#E6F5FF"/>
<mask id="mask0_6452_12" style="mask-type:luminance" maskUnits="userSpaceOnUse" x="32" y="116" width="513" height="348">
<path d="M73.0984 463.994C73.0984 463.994 -24.7235 369.417 85.1874 245.408C195.099 121.399 351.039 90.4517 441.362 138.247C531.685 186.042 596.536 379.499 488.801 457.44L73.0984 463.994Z" fill="white"/>
</mask>
<g mask="url(#mask0_6452_12)">
<path d="M-22.0266 228.933C-68.4874 348.788 19.4504 450.898 110.218 445.801C200.986 440.705 186.54 650.276 72.9646 666.821" stroke="white" stroke-width="0.94445" stroke-miterlimit="10"/>
<path d="M9.82556 214.889C-36.6354 334.744 51.3023 436.855 142.07 431.758C232.838 426.661 218.392 636.232 104.817 652.778" stroke="white" stroke-width="1.16665" stroke-miterlimit="10"/>
<path d="M25.7512 207.867C-20.7098 327.722 67.2282 429.833 157.996 424.736C248.763 419.639 234.317 629.211 120.742 645.756" stroke="white" stroke-width="1.27775" stroke-miterlimit="10"/>
<path d="M41.6772 200.845C-4.7838 320.701 83.1542 422.811 173.922 417.715C264.689 412.618 250.244 622.189 136.668 638.734" stroke="white" stroke-width="1.3889" stroke-miterlimit="10"/>
<path d="M57.6028 193.823C11.1418 313.678 99.0798 415.789 189.848 410.692C280.615 405.596 266.169 615.167 152.594 631.712" stroke="white" stroke-width="1.5" stroke-miterlimit="10"/>
<path d="M73.5289 186.802C27.0679 306.656 115.006 408.767 205.774 403.671C296.541 398.574 282.095 608.145 168.52 624.691" stroke="white" stroke-width="1.6111" stroke-miterlimit="10"/>
<path d="M89.4547 179.78C42.9937 299.635 130.931 401.745 221.699 396.649C312.467 391.553 298.021 601.124 184.446 617.669" stroke="white" stroke-width="1.7222" stroke-miterlimit="10"/>
<path d="M105.381 172.758C58.9197 292.613 146.857 394.724 237.625 389.627C328.393 384.531 313.947 594.102 200.371 610.647" stroke="white" stroke-width="1.83335" stroke-miterlimit="10"/>
<path d="M121.306 165.736C74.8453 285.591 162.783 387.702 253.551 382.605C344.319 377.509 329.872 587.08 216.297 603.625" stroke="white" stroke-width="1.94445" stroke-miterlimit="10"/>
<path d="M137.232 158.715C90.7714 278.57 178.709 380.68 269.477 375.584C360.245 370.487 345.798 580.059 232.223 596.603" stroke="white" stroke-width="2.05555" stroke-miterlimit="10"/>
<path d="M153.159 151.693C106.697 271.548 194.635 373.658 285.403 368.562C376.171 363.465 361.725 573.036 248.149 589.581" stroke="white" stroke-width="2.16665" stroke-miterlimit="10"/>
<path d="M169.084 144.671C122.623 264.526 210.561 366.637 301.328 361.54C392.096 356.443 377.65 566.015 264.075 582.559" stroke="white" stroke-width="2.2778" stroke-miterlimit="10"/>
<path d="M185.01 137.649C138.549 257.504 226.487 359.615 317.254 354.518C408.022 349.421 393.576 558.993 280.001 575.538" stroke="white" stroke-width="2.3889" stroke-miterlimit="10"/>
<path d="M200.936 130.628C154.475 250.483 242.413 352.593 333.181 347.496C423.948 342.4 409.502 551.971 295.927 568.516" stroke="white" stroke-width="2.5" stroke-miterlimit="10"/>
<path d="M216.862 123.605C170.401 243.46 258.338 345.571 349.106 340.475C439.874 335.378 425.428 544.949 311.853 561.494" stroke="white" stroke-width="2.6111" stroke-miterlimit="10"/>
<path d="M232.787 116.584C186.326 236.438 274.264 338.549 365.032 333.453C455.8 328.356 441.353 537.927 327.778 554.473" stroke="white" stroke-width="2.7222" stroke-miterlimit="10"/>
<path d="M248.714 109.562C202.253 229.417 290.191 331.527 380.959 326.431C471.726 321.334 457.28 530.906 343.705 547.451" stroke="white" stroke-width="2.83335" stroke-miterlimit="10"/>
<path d="M264.639 102.54C218.178 222.395 306.116 324.506 396.884 319.409C487.652 314.313 473.205 523.884 359.63 540.429" stroke="white" stroke-width="2.94445" stroke-miterlimit="10"/>
<path d="M280.565 95.5182C234.104 215.373 322.042 317.484 412.81 312.387C503.577 307.291 489.131 516.862 375.556 533.408" stroke="white" stroke-width="3.05555" stroke-miterlimit="10"/>
<path d="M296.491 88.4963C250.03 208.351 337.968 310.462 428.736 305.365C519.503 300.269 505.057 509.84 391.482 526.385" stroke="white" stroke-width="3.16665" stroke-miterlimit="10"/>
<path d="M312.417 81.4747C265.956 201.33 353.894 303.441 444.661 298.343C535.429 293.247 520.983 502.819 407.407 519.363" stroke="white" stroke-width="3.27775" stroke-miterlimit="10"/>
<path d="M328.343 74.4528C281.882 194.308 369.819 296.419 460.587 291.322C551.355 286.225 536.909 495.797 423.333 512.341" stroke="white" stroke-width="3.3889" stroke-miterlimit="10"/>
<path d="M344.269 67.4312C297.808 187.286 385.746 289.397 476.514 284.3C567.281 279.203 552.835 488.775 439.26 505.32" stroke="white" stroke-width="3.5" stroke-miterlimit="10"/>
<path d="M360.194 60.4092C313.733 180.264 401.671 282.375 492.439 277.278C583.207 272.182 568.76 481.753 455.185 498.298" stroke="white" stroke-width="3.6111" stroke-miterlimit="10"/>
<path d="M376.12 53.3873C329.659 173.242 417.597 275.353 508.365 270.257C599.133 265.16 584.686 474.731 471.111 491.276" stroke="white" stroke-width="3.7222" stroke-miterlimit="10"/>
<path d="M392.046 46.3655C345.585 166.221 433.523 268.331 524.291 263.235C615.059 258.138 600.612 467.709 487.037 484.255" stroke="white" stroke-width="3.83335" stroke-miterlimit="10"/>
<path d="M407.972 39.3438C361.511 159.199 449.449 261.309 540.217 256.213C630.984 251.116 616.538 460.688 502.962 477.233" stroke="white" stroke-width="3.94445" stroke-miterlimit="10"/>
<path d="M423.898 32.3222C377.437 152.177 465.375 254.288 556.143 249.191C646.91 244.095 632.464 453.666 518.889 470.211" stroke="white" stroke-width="4.05555" stroke-miterlimit="10"/>
<path d="M439.824 25.3C393.363 145.155 481.301 247.266 572.069 242.169C662.836 237.073 648.39 446.644 534.815 463.189" stroke="white" stroke-width="4.16665" stroke-miterlimit="10"/>
<path d="M455.749 18.2784C409.288 138.133 497.226 240.244 587.994 235.147C678.762 230.051 664.315 439.623 550.74 456.168" stroke="white" stroke-width="4.2778" stroke-miterlimit="10"/>
<path d="M471.676 11.2565C425.215 131.112 513.153 233.223 603.92 228.125C694.688 223.029 680.242 432.601 566.666 449.145" stroke="white" stroke-width="4.3889" stroke-miterlimit="10"/>
<path d="M487.601 4.23486C441.14 124.09 529.078 226.201 619.846 221.104C710.613 216.007 696.167 425.579 582.592 442.124" stroke="white" stroke-width="4.5" stroke-miterlimit="10"/>
</g>
<path d="M232.02 334.608C232.02 334.608 237.534 374.813 237.534 398.376C237.534 421.938 232.02 469.623 232.02 469.623C232.02 469.623 253.839 491.783 290.704 488.136C327.567 484.49 344.818 471.867 344.818 471.867C344.818 471.867 345.29 428.95 341.746 405.668C338.202 382.387 348.126 321.517 348.126 321.517L353.64 267.473L350.504 258.684L327.646 249.522H281.96L256.281 245.407L228.869 258.684L226.034 323.387L232.02 334.608Z" fill="#70FF00"/>
<path d="M271.09 213.991C271.09 229.326 271.562 234.935 265.261 240.171C258.959 245.407 256.281 245.407 256.281 245.407C256.281 245.407 263.265 264.856 290.256 263.921C317.249 262.986 327.646 249.522 327.646 249.522C327.646 249.522 311.711 241.919 310.474 230.445C309.237 218.972 308.584 210.812 308.584 210.812L271.09 213.991Z" fill="#F7BF6D"/>
<path d="M243.56 166.539C242.905 175.412 244.742 182.949 249.468 188.138C254.194 193.327 257.266 193.187 257.266 193.187C257.266 193.187 262.582 208.007 269.514 216.61C276.446 225.211 286.843 235.122 298.028 228.016C309.214 220.91 315.515 212.308 319.296 205.015C323.077 197.722 324.338 191.177 324.338 191.177C324.338 191.177 326.622 193.889 330.481 187.718C334.341 181.546 337.571 178.367 337.019 165.838C336.468 153.309 335.286 150.224 335.286 150.224C335.286 150.224 323.786 124.324 293.066 127.409C262.346 130.495 249.349 141.995 249.349 141.995L245.096 162.332C245.096 162.332 243.749 163.976 243.56 166.539Z" fill="#FFCC7B"/>
<path d="M245.096 162.332C248.286 162.192 251.594 163.033 253.367 170.466C255.139 177.9 254.194 183.65 255.966 184.352C257.738 185.053 257.384 175.937 257.029 168.644C256.675 161.35 255.021 147.045 264.945 147.746C274.87 148.447 283.692 175.843 305.59 151.72C305.59 151.72 303.227 162.252 290.624 166.055C290.624 166.055 306.536 174.534 317.721 159.2C317.721 159.2 317.523 167.522 320.95 167.662C324.377 167.802 326.031 173.973 324.613 180.845C323.195 187.718 325.913 188.559 327.567 179.303C329.221 170.046 327.685 165.278 332.529 163.174C337.373 161.07 337.019 165.839 337.019 165.839C337.019 165.839 348.362 94.3104 305.827 90.6637C263.291 87.017 245.332 117.963 244.387 138.394C243.442 158.826 245.096 162.332 245.096 162.332Z" fill="#191919"/>
<path d="M228.869 258.685C206.814 267.287 200.828 277.759 197.677 309.175C194.526 340.591 189.485 387.716 188.854 402.302C188.224 416.889 192.162 436.15 203.348 442.321C214.533 448.493 243.52 446.81 243.52 446.81L244.781 420.068C244.781 420.068 220.677 408.1 217.999 404.734C215.321 401.368 231.862 353.495 234.934 330.494C238.007 307.492 228.869 258.685 228.869 258.685Z" fill="#70FF00"/>
<path d="M350.504 258.685C372.559 267.287 378.545 277.759 381.696 309.175C384.847 340.591 389.887 387.716 390.518 402.302C391.149 416.889 387.21 436.15 376.025 442.321C364.839 448.492 335.852 446.81 335.852 446.81L334.592 420.068C334.592 420.068 358.695 408.1 361.374 404.734C364.052 401.368 347.51 353.495 344.438 330.494C341.366 307.492 350.504 258.685 350.504 258.685Z" fill="#70FF00"/>
<path d="M367.282 431.541C367.282 438.877 362.272 444.824 356.091 444.824H223.583C217.403 444.824 212.392 438.877 212.392 431.541L201.202 357.985C201.202 350.648 206.212 344.701 212.392 344.701H362.587C368.768 344.701 373.778 350.648 373.778 357.985L367.282 431.541Z" fill="#BCBCBC"/>
<path d="M549.135 457.44H33.0693V470.548H549.135V457.44Z" fill="#828282"/>
<path d="M534.382 470.548H47.8239V494H534.382V470.548Z" fill="#6D6D6D"/>
<path d="M367.282 454.565C367.282 456.153 366.198 457.44 364.861 457.44H214.815C213.477 457.44 212.393 456.153 212.393 454.565V449.971C212.393 448.383 213.477 447.096 214.815 447.096H364.861C366.198 447.096 367.282 448.383 367.282 449.971V454.565Z" fill="#565656"/>
<path d="M367.282 433.812C367.282 441.149 362.272 447.096 356.091 447.096H223.583C217.403 447.096 212.392 441.149 212.392 433.812L201.202 360.257C201.202 352.92 206.212 346.973 212.392 346.973H362.587C368.768 346.973 373.778 352.92 373.778 360.257L367.282 433.812Z" fill="#272727"/>
<path d="M582 263.616H440.428V359.801H582V263.616Z" fill="#C4E6C1"/>
<path d="M460.992 272.315H449.022V286.524H460.992V272.315Z" fill="white"/>
<path d="M528.057 272.315H465.212V277.871H528.057V272.315Z" fill="white"/>
<path d="M497.057 280.968H465.212V286.524H497.057V280.968Z" fill="white"/>
<path d="M460.992 294.257H449.022V308.466H460.992V294.257Z" fill="white"/>
<path d="M528.057 294.257H465.212V299.813H528.057V294.257Z" fill="white"/>
<path d="M497.057 302.91H465.212V308.466H497.057V302.91Z" fill="white"/>
<path d="M460.992 316.198H449.022V330.408H460.992V316.198Z" fill="white"/>
<path d="M528.057 316.198H465.212V321.755H528.057V316.198Z" fill="white"/>
<path d="M497.057 324.852H465.212V330.408H497.057V324.852Z" fill="white"/>
<path d="M460.992 338.141H449.022V352.35H460.992V338.141Z" fill="white"/>
<path d="M528.057 338.141H465.212V343.696H528.057V338.141Z" fill="white"/>
<path d="M497.057 346.793H465.212V352.35H497.057V346.793Z" fill="white"/>
<path d="M578.086 271.495H533.198V313.075H578.086V271.495Z" fill="white"/>
<path d="M578.086 318.157H533.198V353.653H578.086V318.157Z" fill="white"/>
<path d="M537.341 302.91C540.219 293.902 545.053 283.427 548.852 289.438C552.65 295.45 558.059 301.716 559.325 299.813C560.592 297.909 563.354 291.761 566.692 291.215C570.03 290.668 575.784 302.91 575.784 302.91H537.341Z" fill="#8ECC36"/>
<path d="M537.341 345.763C540.219 336.755 545.053 326.28 548.852 332.291C552.65 338.303 558.059 344.57 559.325 342.666C560.592 340.762 563.354 334.614 566.692 334.068C570.03 333.521 575.784 345.763 575.784 345.763H537.341Z" fill="#8ECC36"/>
<path d="M449.789 278.918L452.705 284.474L460.148 277.188L459.764 276.732L452.772 282.231L450.009 278.577L449.789 278.918Z" fill="#3BB814"/>
<path d="M449.789 300.132L452.705 305.688L460.148 298.401L459.764 297.946L452.772 303.445L450.009 299.79L449.789 300.132Z" fill="#3BB814"/>
<path d="M449.789 321.345L452.705 326.902L460.148 319.615L459.764 319.16L452.772 324.659L450.009 321.004L449.789 321.345Z" fill="#3BB814"/>
<path d="M449.789 342.559L452.705 348.115L460.148 340.829L459.764 340.373L452.772 345.872L450.009 342.218L449.789 342.559Z" fill="#3BB814"/>
<path d="M184.101 170.595H42.5284V266.78H184.101V170.595Z" fill="#C4E6C1"/>
<path d="M110.308 181.376H53.6794V185.383H110.308V181.376Z" fill="white"/>
<path d="M86.9815 188.845H53.6794V192.852H86.9815V188.845Z" fill="white"/>
<path d="M110.308 203.054H53.6794V207.061H110.308V203.054Z" fill="white"/>
<path d="M86.9815 210.523H53.6794V214.53H86.9815V210.523Z" fill="white"/>
<path d="M110.308 224.732H53.6794V228.74H110.308V224.732Z" fill="white"/>
<path d="M86.9815 232.2H53.6794V236.209H86.9815V232.2Z" fill="white"/>
<path d="M110.308 246.41H53.6794V250.418H110.308V246.41Z" fill="white"/>
<path d="M86.9815 253.879H53.6794V257.887H86.9815V253.879Z" fill="white"/>
<path d="M172.922 220.634C172.922 237.084 161.688 250.418 147.83 250.418C133.972 250.418 122.738 237.084 122.738 220.634C122.738 204.184 133.972 190.849 147.83 190.849C148.719 190.849 149.598 190.904 150.464 191.013L147.83 220.634L172.629 216.076C172.823 217.563 172.922 219.085 172.922 220.634Z" fill="#70FF00"/>
<path d="M174.855 213.447L150.055 218.004L152.689 188.384C164.038 189.788 173.137 200.172 174.855 213.447Z" fill="white"/>
<path d="M445.955 94.2621H367.281V214.96H445.955V94.2621Z" fill="#C4E6C1"/>
<path d="M435.312 104.145H377.924V109.447H435.312V104.145Z" fill="white"/>
<path d="M435.312 114.603H377.924V119.905H435.312V114.603Z" fill="white"/>
<path d="M435.312 125.061H377.924V130.363H435.312V125.061Z" fill="white"/>
<path d="M416.78 135.52H377.924V140.821H416.78V135.52Z" fill="white"/>
<path d="M435.312 145.978H377.924V151.28H435.312V145.978Z" fill="white"/>
<path d="M435.312 156.436H377.924V161.738H435.312V156.436Z" fill="white"/>
<path d="M435.312 177.695H406.618V206.885H435.312V177.695Z" fill="white"/>
<path d="M404.262 177.695H377.924V206.885H404.262V177.695Z" fill="white"/>
<path d="M406.618 166.894H377.924V172.196H406.618V166.894Z" fill="white"/>
<path d="M234.965 0H156.292V120.697H234.965V0Z" fill="#C4E6C1"/>
<path d="M224.322 43.9084H166.935V49.2103H224.322V43.9084Z" fill="white"/>
<path d="M224.322 54.3665H166.935V59.6684H224.322V54.3665Z" fill="white"/>
<path d="M224.322 15.3729H195V20.6748H224.322V15.3729Z" fill="white"/>
<path d="M214.119 25.8309H195V31.1329H214.119V25.8309Z" fill="white"/>
<path d="M224.322 83.6869H195V88.9888H224.322V83.6869Z" fill="white"/>
<path d="M214.119 94.145H195V99.447H214.119V94.145Z" fill="white"/>
<path d="M192.348 79.2088H167.859V106.349H192.348V79.2088Z" fill="white"/>
<path d="M195.628 64.825H166.935V70.1269H195.628V64.825Z" fill="white"/>
<path d="M175.026 28.2293C178.79 28.2293 181.842 24.607 181.842 20.1387C181.842 15.6703 178.79 12.048 175.026 12.048C171.262 12.048 168.21 15.6703 168.21 20.1387C168.21 24.607 171.262 28.2293 175.026 28.2293Z" stroke="#65D81F" stroke-width="4" stroke-miterlimit="10"/>
<path d="M179.557 26.1805L190.503 38.3965" stroke="#65D81F" stroke-width="4" stroke-miterlimit="10"/>
<path d="M141.572 315.983H0V412.168H141.572V315.983Z" fill="#C4E6C1"/>
<path d="M32.0561 378.02H23.24V396.426H32.0561V378.02Z" fill="white"/>
<path d="M47.5917 367.143H38.7753V396.426H47.5917V367.143Z" fill="#8ECC36"/>
<path d="M63.1272 359.615H54.311V396.426H63.1272V359.615Z" fill="white"/>
<path d="M78.6626 374.91H69.8465V396.426H78.6626V374.91Z" fill="#8ECC36"/>
<path d="M94.1984 356.468H85.3823V396.426H94.1984V356.468Z" fill="white"/>
<path d="M109.734 341.538H100.918V396.426H109.734V341.538Z" fill="#8ECC36"/>
<path d="M13.6586 368.982C13.1982 369.643 60.1588 338.31 60.1588 338.31L70.7533 356.468L108.961 327.38" stroke="#8ECC36" stroke-width="3" stroke-miterlimit="10"/>
<path d="M36.8318 327.38H10.4356V331.387H36.8318V327.38Z" fill="#3BB814"/>
<path d="M27.01 336.033H10.4356V340.041H27.01V336.033Z" fill="#3BB814"/>
<path d="M177.201 344.318H127.881V349.097H177.201V344.318Z" fill="#8ECC36"/>
<path d="M161.789 352.923H127.881V357.702H161.789V352.923Z" fill="#8ECC36"/>
<path d="M168.449 361.528H127.881V366.307H168.449V361.528Z" fill="#8ECC36"/>
<path d="M151.475 370.133H127.881V374.912H151.475V370.133Z" fill="#8ECC36"/>
<path d="M136.752 110.463H89.0236V117.36H136.752V110.463Z" fill="#C4E6C1"/>
<path d="M136.752 122.88H65.584V129.776H136.752V122.88Z" fill="#C4E6C1"/>
<path d="M114.538 135.298H67.9323V142.193H114.538V135.298Z" fill="#C4E6C1"/>
<path d="M99.6291 147.715H65.584V154.611H99.6291V147.715Z" fill="#C4E6C1"/>
<path d="M528.635 207.391H468.584V213.21H528.635V207.391Z" fill="#C4E6C1"/>
<path d="M504.745 217.869H468.584V223.688H504.745V217.869Z" fill="#C4E6C1"/>
<path d="M528.635 228.347H468.584V234.165H528.635V228.347Z" fill="#C4E6C1"/>
<path d="M497.311 238.824H468.584V244.643H497.311V238.824Z" fill="#C4E6C1"/>
</g>
<defs>
<clipPath id="clip0_6452_12">
<rect width="582" height="494" fill="white"/>
</clipPath>
</defs>
</svg>
