<svg width="663" height="1024" viewBox="0 0 663 1024" fill="none" xmlns="http://www.w3.org/2000/svg">
<path d="M663 511C663 847.894 389.894 1121 53 1121C-283.894 1121 -557 847.894 -557 511C-557 174.106 -283.894 -99 53 -99C389.894 -99 663 174.106 663 511Z" fill="#131313"/>
<path d="M531.967 702.814H464.126C459.64 702.814 456 706.454 456 710.94V754.672C456 759.157 459.64 762.798 464.126 762.798H484.325L490.705 773.84L498.051 786.572L505.397 773.84L511.777 762.798H531.976C536.462 762.798 540.102 759.157 540.102 754.672V710.94C540.102 706.454 536.462 702.814 531.976 702.814H531.967Z" fill="#FCB32B"/>
<path d="M492.627 752.331C498.506 753.056 504.468 753.093 510.356 752.434C511.777 752.276 513.235 752.062 514.442 751.31C515.65 750.558 516.541 749.248 516.235 747.855C517.303 747.846 518.185 747.038 518.937 746.286C519.244 745.979 519.569 745.663 519.754 745.264C519.977 744.809 520.014 744.289 519.987 743.778C519.903 742.181 519.16 740.704 517.767 739.915C519.039 739.534 520.098 738.494 520.479 737.222C520.86 735.949 520.562 734.491 519.717 733.479C519.151 732.801 518.473 732.476 517.656 732.142C518.231 731.622 519.039 731.371 519.494 730.739C520.126 729.866 519.782 728.557 518.984 727.823C518.185 727.099 517.07 726.839 516.003 726.737C514.043 726.56 512.074 726.82 510.115 726.895C508.155 726.969 506.028 726.607 504.282 725.697C503.902 723.106 504.524 720.403 503.827 717.877C502.973 714.775 500.011 712.379 496.807 712.194C496.194 712.156 495.506 712.231 495.107 712.704C494.819 713.057 494.763 713.54 494.763 713.986C494.754 716.075 495.544 718.081 496.017 720.115C496.5 722.149 496.621 724.462 495.432 726.18C494.968 726.848 494.327 727.396 493.946 728.121C493.426 729.114 493.473 730.312 493.194 731.408C492.925 732.504 492.07 733.646 490.947 733.535L492.609 752.331H492.627Z" fill="white"/>
<path d="M491.68 728.093H484.65C484.106 728.093 483.666 728.534 483.666 729.077V753.548C483.666 754.092 484.106 754.533 484.65 754.533H491.68C492.224 754.533 492.665 754.092 492.665 753.548V729.077C492.665 728.534 492.224 728.093 491.68 728.093Z" fill="white"/>
<path d="M489.033 731.38C489.033 731.984 488.541 732.476 487.937 732.476C487.334 732.476 486.842 731.984 486.842 731.38C486.842 730.777 487.334 730.284 487.937 730.284C488.541 730.284 489.033 730.777 489.033 731.38Z" fill="white"/>
<path d="M170.357 487.261C174.522 487.774 178.747 487.8 182.919 487.333C183.926 487.221 184.959 487.07 185.815 486.537C186.67 486.004 187.302 485.076 187.085 484.089C187.841 484.082 188.46 483.51 189 482.977C189.217 482.76 189.447 482.536 189.579 482.253C189.737 481.93 189.763 481.562 189.743 481.2C189.684 480.068 189.157 479.022 188.17 478.463C189.072 478.193 189.822 477.456 190.092 476.554C190.362 475.653 190.151 474.619 189.552 473.902C189.151 473.422 188.671 473.185 188.091 472.955C188.499 472.586 189.072 472.408 189.394 471.961C189.842 471.342 189.598 470.415 189.032 469.895C188.467 469.381 187.677 469.197 186.92 469.125C185.532 469 184.137 469.184 182.748 469.237C181.36 469.289 179.853 469.033 178.615 468.388C178.346 466.552 178.787 464.637 178.293 462.847C177.688 460.649 175.588 458.951 173.318 458.82C172.884 458.793 172.397 458.846 172.114 459.181C171.91 459.432 171.87 459.774 171.87 460.09C171.864 461.57 172.423 462.992 172.759 464.433C173.101 465.874 173.186 467.512 172.344 468.73C172.015 469.204 171.561 469.592 171.291 470.105C170.923 470.809 170.956 471.658 170.758 472.435C170.561 473.211 169.962 474.021 169.166 473.942L170.344 487.261H170.357Z" fill="white"/>
<path d="M169.679 470.079H164.698C164.312 470.079 164 470.391 164 470.776V488.116C164 488.501 164.312 488.814 164.698 488.814H169.679C170.064 488.814 170.377 488.501 170.377 488.116V470.776C170.377 470.391 170.064 470.079 169.679 470.079Z" fill="white"/>
<path d="M167.027 473.191C167.456 473.191 167.803 472.844 167.803 472.415C167.803 471.986 167.456 471.638 167.027 471.638C166.598 471.638 166.25 471.986 166.25 472.415C166.25 472.844 166.598 473.191 167.027 473.191Z" fill="white"/>
<g opacity="0.06">
<path d="M276.394 805.528C437.327 805.528 567.788 792.629 567.788 776.718C567.788 760.806 437.327 747.908 276.394 747.908C115.462 747.908 -15 760.806 -15 776.718C-15 792.629 115.462 805.528 276.394 805.528Z" fill="black"/>
</g>
<path d="M113.046 733.923C116.486 737.362 120.216 740.641 124.27 743.741C144.521 759.293 172.523 770.436 209.714 774.166C399.902 793.206 462.755 703.982 478.112 566.715C484.96 505.542 468.94 465.169 449.076 439.218C446.993 436.505 444.877 433.953 442.746 431.547C441.535 430.19 440.307 428.866 439.032 427.574C413.387 401.38 376.357 389.043 339.973 395.034C311.373 399.733 285.389 415.01 264.314 445.548C230.595 494.367 262.49 536.338 166.144 539.148C92.3913 541.296 45.6558 666.694 113.062 733.939L113.046 733.923Z" fill="#3E3E3E"/>
<path d="M404.214 437.506C404.214 437.506 426.71 485.63 400.742 573.966C374.774 662.301 340.377 655.341 318.156 655.341C279.333 655.341 200.719 618.78 185.362 589.97C170.004 561.16 198.991 559.448 253.268 555.185C307.562 550.921 348.064 418.45 404.214 437.506Z" fill="#393939"/>
<path d="M355.444 692.403C355.864 692.403 356.3 692.242 356.623 691.903C357.236 691.257 357.22 690.239 356.558 689.609C337.147 671.151 318.608 660.283 306.464 654.404C293.27 648.025 284.759 646.039 284.404 645.958C283.532 645.765 282.66 646.298 282.466 647.17C282.272 648.042 282.805 648.914 283.677 649.107C284.065 649.204 317.865 657.279 354.313 691.951C354.62 692.242 355.024 692.403 355.428 692.403H355.444Z" fill="#393939"/>
<path d="M349.033 670.78C349.549 670.78 350.066 670.537 350.373 670.069C350.874 669.326 350.68 668.325 349.937 667.824C349.178 667.308 331.107 655.325 303.137 652.273C302.249 652.176 301.457 652.822 301.36 653.71C301.264 654.598 301.91 655.39 302.798 655.487C329.977 658.458 347.967 670.376 348.144 670.505C348.419 670.699 348.742 670.78 349.049 670.78H349.033Z" fill="#393939"/>
<path d="M407.686 537.13C408.494 537.13 409.188 536.532 409.285 535.709C411.627 516.992 419.685 502.684 426.015 493.979C432.911 484.516 439.338 479.429 439.403 479.381C440.097 478.832 440.227 477.814 439.678 477.104C439.128 476.393 438.111 476.28 437.401 476.829C437.126 477.039 430.618 482.191 423.464 491.977C416.875 501.004 408.51 515.845 406.055 535.305C405.942 536.193 406.572 537.001 407.46 537.114C407.525 537.114 407.589 537.114 407.67 537.114L407.686 537.13Z" fill="#393939"/>
<path d="M113.046 733.922C116.486 737.362 120.216 740.641 124.27 743.741C147.67 757.791 176.237 767.044 207.696 770.662C217.45 771.792 227.301 772.341 237.152 772.341C264.314 772.341 291.542 768.11 317.203 759.793C383.963 738.17 432.136 691.903 452.839 629.535C464.192 595.331 469.763 562.08 469.408 530.686C469.133 505.542 465.048 481.528 457.312 459.307C454.728 451.895 451.918 445.209 449.076 439.218C446.993 436.505 444.877 433.953 442.746 431.547C441.535 430.19 440.307 428.866 439.031 427.574C444.102 436.262 449.528 447.292 454.163 460.615C466.097 494.964 474.996 551.971 449.609 628.453C429.261 689.771 381.864 735.263 316.169 756.547C246.373 779.156 165.643 769.983 115.291 733.745C114.596 733.244 113.66 733.341 113.078 733.939L113.046 733.922Z" fill="#393939"/>
<path d="M391.941 381.921C391.941 381.921 418.199 355.081 379.958 336.17C341.701 317.26 296.645 346.15 289.265 367.225C281.869 388.3 391.957 381.921 391.957 381.921H391.941Z" fill="#70FF00"/>
<path d="M346.255 363.511C346.481 363.511 346.723 363.43 346.917 363.269C357.35 354.338 374.839 355.162 375.017 355.162H375.065C375.598 355.162 376.05 354.742 376.066 354.209C376.099 353.644 375.663 353.175 375.114 353.143C374.371 353.095 356.639 352.271 345.593 361.734C345.173 362.09 345.125 362.736 345.48 363.156C345.674 363.382 345.964 363.511 346.255 363.511Z" fill="#131313"/>
<path d="M371.9 364.787C372.255 364.787 372.61 364.593 372.788 364.254C373.046 363.753 372.869 363.155 372.368 362.881C371.851 362.606 359.756 356.244 351.181 358.246C350.631 358.375 350.292 358.908 350.421 359.457C350.551 360.006 351.084 360.346 351.633 360.216C359.481 358.391 371.302 364.609 371.415 364.673C371.561 364.754 371.722 364.787 371.884 364.787H371.9Z" fill="#131313"/>
<path d="M107.281 717.79L93.8124 742.611C93.8124 742.611 77.2595 746.503 57.5577 748.021C27.6334 750.314 18.7675 745.598 16.652 752.284C15.0048 757.5 37.7589 769.273 48.2881 771.13C58.8173 772.987 81.8136 782.418 96.7515 784.082C111.673 785.729 118.262 766.883 121.653 760.181C125.029 753.463 135.671 730.741 135.671 730.741L107.297 717.79H107.281Z" fill="#F79A86"/>
<path d="M28.3924 758.841C28.3278 760.714 28.6669 762.49 29.652 763.928C29.8135 764.154 29.975 764.364 30.1688 764.573C35.4657 770.419 56.6856 773.262 56.6856 773.262C54.99 771.631 54.1825 769.337 53.9403 766.77C53.2782 760.019 56.4918 751.364 57.8806 747.988C58.2682 747.068 58.5104 746.551 58.5104 746.551C54.8446 745.695 51.3564 745.211 48.2073 744.985C45.1067 744.759 42.3291 744.759 40.0359 744.855C35.7079 745.049 33.0595 745.582 33.0595 745.582C33.0595 745.582 32.3166 746.777 31.4284 748.618C30.1365 751.267 28.5377 755.239 28.4085 758.841H28.3924Z" fill="#70FF00"/>
<path d="M37.4199 754.739L44.7678 755.498C44.7678 755.498 45.7367 751.913 46.8348 748.618C47.287 747.278 47.7715 745.97 48.2075 745.001C45.1069 744.775 42.3293 744.775 40.0361 744.872C39.6001 745.841 39.0833 747.213 38.6311 748.731C38.0497 750.653 37.5491 752.817 37.4361 754.739H37.4199Z" fill="#3E3E3E"/>
<path d="M19.2521 755.95C19.2521 755.95 87.7889 777.654 97.01 779.253C106.215 780.868 111.237 779.059 111.237 779.059C111.237 779.059 110.947 782.822 110.172 786.359C109.267 790.525 104.939 792.98 100.87 791.72C82.5404 786.052 21.9329 767.125 17.7987 763.766C12.9217 759.81 13.9875 755.595 19.2521 755.95Z" fill="#70FF00"/>
<path d="M170.44 712.089L171.328 734.391C171.328 734.391 159.087 746.212 142.938 757.581C118.391 774.861 108.363 775.345 109.962 782.16C111.205 787.473 136.801 785.971 146.781 782.176C156.778 778.397 181.373 774.731 195.051 768.53C208.729 762.313 204.741 742.756 204.224 735.263C203.691 727.77 202.577 710.878 202.577 710.878L170.44 712.089Z" fill="#F79A86"/>
<path d="M123.398 781.789C124.302 783.436 125.497 784.792 127.096 785.519C127.338 785.632 127.596 785.729 127.871 785.81C135.412 788.135 155.098 779.721 155.098 779.721C152.821 779.189 150.948 777.638 149.414 775.555C145.393 770.097 143.729 761.021 143.212 757.403C143.067 756.418 143.019 755.837 143.019 755.837C139.417 756.983 136.188 758.356 133.362 759.761C130.584 761.15 128.194 762.571 126.272 763.831C122.655 766.205 120.652 768.013 120.652 768.013C120.652 768.013 120.62 769.418 120.798 771.453C121.04 774.392 121.702 778.623 123.43 781.789H123.398Z" fill="#70FF00"/>
<path d="M129.05 773.649L135.752 770.549C135.752 770.549 134.75 766.964 134.007 763.572C133.701 762.184 133.458 760.827 133.329 759.761C130.552 761.15 128.161 762.571 126.24 763.831C126.369 764.881 126.611 766.334 126.999 767.868C127.483 769.822 128.161 771.938 129.05 773.649Z" fill="#3E3E3E"/>
<path d="M114.047 783.985C114.047 783.985 184.053 767.577 192.79 764.251C201.527 760.924 204.918 756.806 204.918 756.806C204.918 756.806 206.598 760.197 207.744 763.621C209.085 767.658 206.63 771.986 202.496 772.987C183.844 777.493 122.073 792.221 116.809 791.446C110.591 790.541 109.348 786.375 114.063 783.969L114.047 783.985Z" fill="#70FF00"/>
<path d="M146.62 534.933C164.384 521.271 228.189 526.891 278.17 533.965C279.592 556.606 272.615 537.808 276.83 560.078C214.43 563.275 196.892 568.201 196.892 568.201C196.892 568.201 206.226 618.99 205.774 640.226C205.322 661.462 212.847 722.909 212.847 722.909L167.856 731.387C167.856 731.387 121.185 554.49 146.62 534.933Z" fill="white"/>
<path d="M165.579 721.504C165.773 721.569 165.983 721.585 166.193 721.536L210.619 712.461C211.281 712.331 211.701 711.685 211.572 711.023C211.443 710.361 210.797 709.941 210.134 710.07L165.708 719.146C165.046 719.275 164.626 719.921 164.756 720.584C164.852 721.02 165.159 721.359 165.563 721.488L165.579 721.504Z" fill="#D8D8D8"/>
<path d="M202.076 712.864C202.27 712.929 202.496 712.945 202.706 712.897C203.368 712.751 203.772 712.105 203.642 711.459C203.594 711.233 198.846 688.786 198.572 652.499C198.297 615.954 187.09 561.515 186.977 560.982C186.847 560.32 186.201 559.9 185.539 560.045C184.877 560.175 184.457 560.821 184.603 561.483C184.716 562.032 195.875 616.228 196.133 652.531C196.408 689.077 201.204 711.75 201.252 711.976C201.349 712.412 201.656 712.735 202.06 712.864H202.076Z" fill="#D8D8D8"/>
<path d="M200.347 330.145C202.646 329.378 204.118 325.469 206.239 323.07C209.023 319.915 212.219 314.34 213.195 310.7C214.663 305.265 218.1 288.997 215.59 285.038C213.067 281.087 209.026 294.888 208.131 297.699C207.236 300.509 205.595 302.091 205.595 302.091C205.595 302.091 212.449 269.715 210.097 266.803C207.744 263.891 202.012 281.932 200.615 286.393C200.615 286.393 204.415 261.71 202.35 260.329C198.197 257.561 193.179 284.849 193.179 284.849C193.179 284.849 195.323 263.92 191.879 263.671C188.216 263.399 185.988 285.831 185.988 285.831C185.988 285.831 185.396 271.982 182.531 270.411C179.657 268.825 178.659 298.006 179.038 302.505C179.417 307.005 179.463 319.229 180.957 324.949C181.971 328.839 193.097 332.541 200.353 330.123L200.347 330.145Z" fill="#F79A86"/>
<path d="M182.725 293.291C182.632 292.84 182.873 292.385 183.319 292.22C193.744 288.476 203.324 293.798 203.722 294.035C204.164 294.283 204.329 294.859 204.08 295.301C203.832 295.743 203.256 295.907 202.814 295.659C202.723 295.599 193.557 290.542 183.946 293.984C183.464 294.151 182.928 293.901 182.761 293.419C182.745 293.391 182.735 293.341 182.733 293.305L182.725 293.291Z" fill="#F3796B"/>
<path d="M188.064 316.072C187.984 315.708 188.121 315.331 188.44 315.109C197.562 308.817 195.958 300.289 195.938 300.189C195.835 299.688 196.168 299.198 196.668 299.096C197.168 298.993 197.65 299.312 197.767 299.804C197.857 300.218 199.631 309.655 189.523 316.628C189.1 316.929 188.528 316.811 188.228 316.388C188.163 316.276 188.107 316.178 188.078 316.064L188.064 316.072Z" fill="#F3796B"/>
<path d="M286.61 369.42L286.68 369.379L286.672 369.365L286.001 369.753L285.052 370.338C284.381 370.726 283.695 371.121 282.996 371.525C281.59 372.318 280.133 373.122 278.644 373.87C275.66 375.387 272.616 376.865 269.497 378.181C267.938 378.839 266.378 379.497 264.794 380.113C263.211 380.729 261.625 381.309 260.045 381.867C258.451 382.433 256.839 382.935 255.227 383.437C253.614 383.939 252 384.404 250.383 384.834C237.417 388.311 224.133 389.753 211.061 388.815C210.247 388.763 209.426 388.696 208.61 388.608C207.789 388.541 206.987 388.445 206.163 388.342L205.544 388.271C205.798 388.292 206.063 388.363 206.356 388.418C206.913 388.543 207.531 388.709 208.123 388.926C208.723 389.158 209.303 389.42 209.835 389.728C210.359 390.022 210.827 390.349 211.229 390.657C212.033 391.275 212.539 391.859 212.821 392.219C213.111 392.592 213.202 392.782 213.196 392.804C213.184 392.848 212.875 392.28 212.591 391.4C212.292 390.528 211.991 389.36 211.71 388.067C211.444 386.766 211.192 385.327 210.998 383.798C210.584 380.755 210.355 377.419 210.186 373.992C209.903 367.107 210.016 359.843 210.322 352.525C210.464 348.863 210.676 345.16 210.918 341.477C211.024 339.626 211.152 337.781 211.302 335.941L211.705 330.599L175.961 323.563L175.568 325.208L175.218 326.733L174.546 329.769C174.125 331.784 173.739 333.797 173.361 335.824C172.62 339.869 171.973 343.916 171.403 348.031C170.29 356.245 169.509 364.583 169.37 373.353C169.294 377.742 169.412 382.242 169.806 386.994C170.02 389.369 170.32 391.825 170.734 394.383C171.17 396.947 171.729 399.627 172.597 402.519C173.465 405.412 174.601 408.542 176.505 412.066C177.456 413.811 178.647 415.678 180.165 417.599C181.676 419.505 183.606 421.523 185.988 423.356C187.172 424.276 188.498 425.151 189.883 425.936C191.283 426.713 192.772 427.42 194.297 427.994C195.814 428.554 197.391 429.024 198.928 429.329C199.698 429.5 200.464 429.599 201.202 429.714L202.061 429.814C203.206 429.955 204.364 430.088 205.514 430.207C206.665 430.326 207.821 430.423 208.977 430.52C211.281 430.7 213.589 430.822 215.909 430.9C218.213 430.95 220.523 430.978 222.82 430.919C225.125 430.875 227.412 430.767 229.697 430.622C231.988 430.456 234.263 430.262 236.525 429.981C245.6 428.937 254.471 427.023 263.047 424.403C267.323 423.09 271.531 421.593 275.642 419.928C279.745 418.249 283.797 416.45 287.734 414.42C289.707 413.411 291.655 412.361 293.587 411.283C295.519 410.204 297.419 409.07 299.301 407.872C301.19 406.688 303.056 405.462 304.909 404.149C305.831 403.486 306.768 402.815 307.702 402.108C308.173 401.761 308.65 401.393 309.141 401.016L310.86 399.632L286.638 369.403L286.61 369.42Z" fill="#70FF00"/>
<path d="M190.62 412.42C190.967 412.892 191.635 413.047 192.174 412.754C200.323 408.329 207.824 400.94 208.131 400.633C208.609 400.17 208.606 399.388 208.143 398.91C207.68 398.431 206.899 398.435 206.42 398.897C206.353 398.974 198.844 406.349 190.997 410.618C190.415 410.935 190.192 411.679 190.509 412.261C190.542 412.317 190.566 412.359 190.598 412.414L190.62 412.42Z" fill="black"/>
<path d="M202.175 412.183C202.316 412.362 202.491 412.504 202.705 412.585C203.327 412.823 204.025 412.513 204.277 411.883C204.415 411.542 207.49 403.464 207.938 400.557C208.043 399.9 207.594 399.283 206.928 399.164C206.271 399.058 205.654 399.508 205.535 400.173C205.108 402.825 202.035 410.94 201.989 411.022C201.833 411.429 201.909 411.851 202.153 412.177L202.175 412.183Z" fill="black"/>
<path d="M177.343 331.642C177.5 331.849 177.755 332 178.037 332.005C188.785 332.178 208.428 336.034 208.618 336.073C209.102 336.167 209.589 335.849 209.697 335.357C209.805 334.866 209.486 334.379 209.003 334.285C208.813 334.246 189.009 330.37 178.101 330.178C177.595 330.172 177.178 330.581 177.164 331.073C177.155 331.284 177.218 331.49 177.343 331.642Z" fill="black"/>
<path d="M268.965 379.305C265.784 388.962 271.065 412.443 265.946 453.736C265.574 456.772 265.138 459.905 264.638 463.151C264.169 466.187 263.652 469.336 263.071 472.582C262.522 475.602 261.924 478.718 261.278 481.9C260.697 484.694 260.083 487.568 259.405 490.491C258.711 493.511 257.984 496.579 257.193 499.728C256.967 500.617 256.724 501.586 256.466 502.587C256.401 502.845 256.337 503.087 256.272 503.346C256.208 503.572 256.159 503.798 256.095 504.04C256.046 504.218 256.014 504.396 255.965 504.557L255.869 504.945C255.804 505.171 255.756 505.413 255.691 505.639C255.691 505.687 255.675 505.736 255.659 505.768C255.594 506.043 255.513 506.333 255.433 506.624C255.433 506.673 255.416 506.705 255.4 506.753C255.336 506.996 255.271 507.254 255.206 507.496C254.9 508.659 254.577 509.886 254.254 511.146C254.173 511.453 254.092 511.776 253.995 512.099C253.882 512.519 253.769 512.955 253.656 513.391C253.43 514.246 253.188 515.102 252.962 515.991C252.849 516.427 252.719 516.879 252.606 517.315C252.348 518.268 252.09 519.22 251.815 520.205C251.767 520.383 251.718 520.561 251.67 520.738C251.04 523.064 250.362 525.454 249.683 527.909C249.377 529.007 249.054 530.137 248.747 531.251C248.359 532.608 247.972 533.981 247.584 535.353C247.003 537.372 246.421 539.391 245.824 541.409L245.065 543.977C244.839 544.752 244.596 545.527 244.37 546.302C244.096 547.223 243.821 548.16 243.547 549.08C243.369 549.694 243.175 550.307 242.982 550.921C242.869 551.309 242.756 551.68 242.642 552.068C242.416 552.827 242.174 553.586 241.948 554.345C241.722 555.104 241.48 555.847 241.254 556.589C241.092 557.122 240.931 557.639 240.769 558.156C240.624 558.624 240.478 559.076 240.333 559.529C240.285 559.658 240.252 559.771 240.22 559.9C240.139 560.158 240.059 560.433 239.962 560.691C239.784 561.224 239.623 561.773 239.445 562.29C239.251 562.904 239.041 563.534 238.847 564.147C237.249 569.056 235.682 573.627 234.213 577.583C245.129 590.131 263.669 601.096 285.47 607.669L297.566 599.804L307.691 612.643C328.992 615.76 351.81 614.532 372.836 606.878C379.781 592.683 391.23 540.602 394.476 525.034C395.122 521.933 395.704 518.817 396.236 515.7C398.82 500.697 400.193 485.469 401.113 469.465C401.162 468.593 401.21 467.721 401.259 466.849C401.259 466.752 401.259 466.639 401.275 466.542C402.26 453.058 419.879 413.331 418.102 399.039C414.582 370.713 396.527 378.174 380.249 373.798C374.904 372.361 370.414 370.552 366.732 368.695C365.198 367.92 363.809 367.144 362.549 366.385C362.017 366.079 361.532 365.772 361.064 365.449C356.009 362.17 353.248 359.409 353.248 359.409L316.315 355.549C312.665 359.845 308.353 362.348 303.815 363.963C303.315 364.141 302.814 364.302 302.297 364.464C301.538 364.706 300.779 364.916 300.02 365.11C286.972 368.501 273.164 366.644 268.982 379.305H268.965Z" fill="#70FF00"/>
<path d="M361.661 578.132C362.065 578.132 362.452 577.874 362.614 577.47C382.816 523.225 393.281 429.561 393.378 428.624C393.443 428.075 393.039 427.574 392.49 427.51C391.941 427.445 391.44 427.849 391.376 428.398C391.279 429.335 380.846 522.757 360.725 576.76C360.531 577.276 360.789 577.858 361.322 578.068C361.435 578.116 361.564 578.132 361.677 578.132H361.661Z" fill="#131313"/>
<path d="M325.94 378.336C325.552 379.514 326.957 381.032 329.089 381.727C331.22 382.421 333.255 382.05 333.643 380.871C334.03 379.692 332.625 378.174 330.494 377.48C328.362 376.785 326.327 377.157 325.94 378.336Z" fill="#131313"/>
<path d="M309.435 374.137C309.048 375.316 310.453 376.834 312.584 377.528C314.716 378.223 316.751 377.851 317.138 376.672C317.526 375.493 316.121 373.975 313.989 373.281C311.857 372.587 309.823 372.958 309.435 374.137Z" fill="#131313"/>
<path d="M304.768 382.954C305.22 382.954 305.624 382.648 305.753 382.195C305.899 381.662 305.559 381.097 305.026 380.968C290.783 377.318 289.895 368.743 289.862 368.388C289.814 367.839 289.33 367.419 288.78 367.467C288.231 367.516 287.812 368 287.86 368.549C287.892 368.969 288.813 378.901 304.542 382.938C304.623 382.954 304.703 382.971 304.8 382.971L304.768 382.954Z" fill="#131313"/>
<path d="M282.886 472.259C301.877 472.259 318.333 467.382 329.347 462.957C343.074 457.45 351.6 451.41 351.681 451.346C352.133 451.023 352.246 450.393 351.923 449.941C351.6 449.489 350.971 449.376 350.518 449.699C350.438 449.763 342.072 455.69 328.556 461.1C316.105 466.09 296.58 471.678 274.359 469.885C273.794 469.837 273.31 470.256 273.277 470.805C273.229 471.355 273.649 471.855 274.198 471.887C277.153 472.13 280.06 472.227 282.902 472.227L282.886 472.259Z" fill="#131313"/>
<path d="M340.377 507.997C340.377 507.997 294.998 496.434 266.721 496.095L258.081 533.512C258.081 533.512 302.895 541.054 331.253 545.996L340.377 507.997Z" fill="#131313"/>
<path d="M365.828 391.723C374.564 391.723 381.25 389.285 385.804 386.765C393.055 382.76 396.592 377.835 396.737 377.625C397.06 377.173 396.947 376.543 396.495 376.22C396.043 375.897 395.413 376.01 395.09 376.462C395.09 376.462 391.634 381.275 384.754 385.038C378.408 388.51 367.733 391.836 352.876 387.944C352.343 387.799 351.778 388.122 351.649 388.671C351.503 389.204 351.826 389.769 352.375 389.898C357.301 391.19 361.807 391.707 365.844 391.707L365.828 391.723Z" fill="#131313"/>
<path d="M249.635 527.908C250.313 525.454 250.992 523.064 251.621 520.738C250.975 523.064 250.313 525.454 249.635 527.908Z" fill="#28100C"/>
<path d="M252.929 515.991C253.172 515.102 253.398 514.247 253.624 513.391C253.398 514.247 253.156 515.102 252.929 515.991Z" fill="#28100C"/>
<path d="M262.909 467.608C262.909 467.608 263.055 467.656 263.136 467.656C263.798 467.737 264.411 467.269 264.492 466.607C266.705 449.715 269.143 429.641 269.369 423.973C269.401 423.311 268.885 422.746 268.206 422.713C267.544 422.681 266.979 423.198 266.947 423.876C266.721 429.464 264.282 449.44 262.086 466.3C262.005 466.881 262.36 467.43 262.909 467.608Z" fill="#131313"/>
<path d="M307.077 279.019C307.077 279.019 295.369 288.224 303.056 302.257C303.056 302.257 307.271 285.866 307.077 279.019Z" fill="#28100C"/>
<path d="M353.958 342.339C353.958 342.339 361.548 349.72 363.115 344.277C364.681 338.835 362.033 336.122 362.033 336.122C362.033 336.122 370.237 344.003 370.366 338.06C370.495 332.133 366.215 326.82 366.215 326.82C366.215 326.82 373.822 321.249 371.335 312.334C368.848 303.42 368.541 296.896 371.028 289.596C373.515 282.297 372.384 274.755 368.783 271.493C363.519 266.713 355.864 267.456 355.864 267.456C355.864 267.456 351.794 254.117 336.55 254.472C321.305 254.827 312.423 242.926 304.736 246.026C297.049 249.127 288.231 274.529 308.918 282.055C308.918 282.055 349.905 309.541 353.958 342.339Z" fill="#28100C"/>
<path d="M315.249 349.59L314.248 359.231C315.281 360.265 316.331 361.169 317.413 361.977C333.094 373.765 352.44 363.22 352.44 363.22L355.929 329.824L320.11 347.249L315.265 349.606L315.249 349.59Z" fill="#F79A86"/>
<path d="M315.346 348.75L314.248 359.231C315.281 360.265 316.331 361.169 317.413 361.976C332.238 357.826 344.172 343.97 344.172 343.97L320.11 347.248L315.346 348.766V348.75Z" fill="#28100C"/>
<path d="M307.675 305.633C307.675 305.633 302.879 298.591 299.116 304.744C295.353 310.897 296.354 324.22 304.913 322.944L307.691 305.633H307.675Z" fill="#F3796B"/>
<path d="M299.471 327.692C299.471 327.692 297.356 347.604 318.091 349.72C338.681 351.835 354.41 337.123 355.218 336.461H355.25L355.912 332.279L359.352 310.671L361.193 299.125C361.193 299.125 366.005 278.486 346.53 272.592C332.302 268.28 318.43 269.281 310.776 276.128C310.533 276.354 310.291 276.58 310.065 276.807C307.626 279.245 305.915 282.346 305.14 286.141L302.313 306.925L301.619 312.028L299.487 327.676L299.471 327.692Z" fill="#F79A86"/>
<path d="M359.336 310.687C359.336 310.687 354.669 312.141 352.618 317.809C349.533 317.486 347.386 314.611 347.951 311.559C348.274 309.783 348.694 307.667 349.178 305.277C350.664 298.123 352.941 295.862 348.791 291.373C344.64 286.883 348.548 284.219 344.769 281.054C340.619 277.581 330.381 283.734 322.839 282.168C313.892 280.311 314.651 274.239 306.851 281.199C306.851 281.199 308.918 270.718 319.092 267.892C329.266 265.05 357.85 267.553 362.227 281.167C366.603 294.78 359.336 310.687 359.336 310.687Z" fill="#28100C"/>
<path d="M342.945 295.652C341.572 298.01 338.568 298.834 336.178 297.493C334.789 296.718 333.142 295.927 331.366 295.346C328.863 294.522 327.538 291.777 328.507 289.322C328.507 289.322 338.843 289.451 342.945 295.669V295.652Z" fill="#28100C"/>
<path d="M304.623 291.357C305.43 293.795 308.046 295.136 310.501 294.377C311.938 293.924 313.618 293.521 315.346 293.327C317.817 293.052 319.561 290.775 319.157 288.321C319.157 288.321 309.597 286.431 304.623 291.357Z" fill="#28100C"/>
<path d="M329.04 312.351C328.895 313.804 331.753 315.29 335.435 315.677C339.117 316.065 342.234 315.193 342.379 313.756C342.525 312.302 339.666 310.816 335.984 310.429C332.302 310.041 329.186 310.913 329.04 312.351Z" fill="#F3796B"/>
<path d="M301.587 312.06C302.104 312.173 302.637 312.254 303.186 312.302C306.868 312.69 309.984 311.818 310.13 310.364C310.275 308.911 307.417 307.425 303.735 307.038C303.234 306.989 302.75 306.957 302.281 306.957L301.587 312.06Z" fill="#F3796B"/>
<path d="M328.653 304.244C328.443 306.23 329.186 307.942 330.3 308.055C331.414 308.168 332.48 306.65 332.69 304.664C332.9 302.677 332.157 300.965 331.043 300.852C329.928 300.739 328.863 302.257 328.653 304.244Z" fill="#28100C"/>
<path d="M308.644 302.144C308.434 304.131 309.177 305.842 310.291 305.955C311.405 306.069 312.471 304.551 312.681 302.564C312.891 300.578 312.148 298.866 311.034 298.753C309.92 298.64 308.854 300.158 308.644 302.144Z" fill="#28100C"/>
<path d="M315.152 322.734C322.435 323.493 329.04 317.873 329.137 317.793C329.476 317.502 329.525 316.969 329.218 316.63C328.927 316.291 328.394 316.242 328.055 316.549C327.619 316.921 317.381 325.609 309.048 318.245C308.709 317.938 308.192 317.97 307.885 318.309C307.578 318.649 307.61 319.165 307.949 319.472C310.275 321.539 312.746 322.476 315.152 322.734Z" fill="#28100C"/>
<path d="M349.566 327.708C349.63 327.934 351.617 334.297 355.202 336.461H355.218L355.88 332.278C355.88 332.278 352.666 331.374 349.55 327.692L349.566 327.708Z" fill="#28100C"/>
<path d="M354.653 314.256C354.653 314.256 363.729 304.389 368.686 313.4C372.772 320.829 361.791 337.931 352.925 330.744L354.653 314.24V314.256Z" fill="#F79A86"/>
<path d="M354.362 327.66C354.782 327.708 355.17 327.434 355.25 327.014C356.978 319.004 364.052 316.905 364.358 316.808C364.794 316.678 365.053 316.226 364.924 315.79C364.794 315.354 364.342 315.096 363.906 315.225C363.567 315.322 355.589 317.664 353.635 326.659C353.538 327.111 353.829 327.547 354.265 327.644C354.298 327.644 354.33 327.644 354.362 327.644V327.66Z" fill="#28100C"/>
<path d="M362.517 323.494C362.759 323.526 363.002 323.445 363.179 323.251C363.502 322.928 363.502 322.412 363.179 322.089C362.873 321.782 360.176 319.166 357.656 319.537C357.204 319.602 356.897 320.021 356.962 320.474C357.027 320.926 357.446 321.233 357.899 321.168C359.352 320.958 361.355 322.605 362.017 323.251C362.162 323.397 362.34 323.461 362.517 323.494Z" fill="#28100C"/>
<path d="M319.464 313.416C319.916 313.465 320.32 313.142 320.368 312.69C320.417 312.237 320.094 311.834 319.641 311.785C316.622 311.462 315.378 309.734 314.99 308.992C318.963 302.596 322.92 296.153 322.968 296.072C323.21 295.685 323.081 295.184 322.694 294.942C322.306 294.7 321.805 294.829 321.563 295.216C321.515 295.281 317.413 301.983 313.359 308.491C313.23 308.701 313.198 308.959 313.279 309.201C313.327 309.347 314.619 312.916 319.464 313.416Z" fill="#28100C"/>
<g opacity="0.5">
<path d="M319.076 306.892C318.915 309.67 323.404 312.189 329.137 312.544C334.854 312.9 339.634 310.929 339.796 308.152C339.957 305.374 335.468 302.855 329.735 302.5C324.018 302.161 319.238 304.115 319.076 306.892Z" fill="white"/>
</g>
<g opacity="0.5">
<path d="M292.576 305.778C292.414 308.556 296.903 311.075 302.636 311.43C308.353 311.785 313.133 309.815 313.295 307.038C313.456 304.26 308.967 301.741 303.234 301.385C297.517 301.046 292.737 303 292.576 305.778Z" fill="white"/>
</g>
<path d="M313.246 307.005C313.392 307.005 313.537 306.957 313.65 306.86C315.83 304.954 318.705 306.828 318.818 306.908C319.092 307.086 319.48 307.021 319.657 306.747C319.835 306.472 319.77 306.101 319.496 305.907C318.204 305.035 315.152 303.937 312.859 305.956C312.6 306.182 312.584 306.553 312.794 306.811C312.907 306.957 313.085 307.021 313.246 307.021V307.005Z" fill="#28100C"/>
<path d="M361.694 309.799C361.871 309.799 362.049 309.718 362.178 309.557C362.388 309.299 362.34 308.911 362.065 308.701C352.925 301.612 340.054 306.731 339.521 306.941C339.214 307.07 339.069 307.425 339.182 307.732C339.311 308.039 339.666 308.184 339.973 308.071C340.102 308.023 352.731 303 361.322 309.67C361.435 309.751 361.564 309.799 361.694 309.799Z" fill="#28100C"/>
<path d="M378.731 590.066C378.731 590.066 375.872 673.412 275.28 640.226C221.552 622.494 197.716 608.88 197.716 608.88C197.716 608.88 180.775 655.906 171.667 675.091C162.559 694.277 137.253 741.238 137.253 741.238L93.8447 730.547C93.8447 730.547 144.391 554.619 175.608 547.174C206.824 539.73 244.273 551.567 310.323 566.553C310.323 566.553 368.008 575.387 378.715 590.066H378.731Z" fill="white"/>
<path d="M136.026 725.444C136.543 725.622 137.141 725.412 137.431 724.928C151.449 702.254 165.369 667.905 176.544 640.306C181.244 628.695 185.313 618.65 188.705 611.157C193.291 600.999 195.164 598.981 195.875 598.674C198.992 597.334 209.23 601.968 222.182 607.814C240.947 616.293 269.289 629.115 302.265 635.962C319.173 639.467 333.836 637.173 345.803 629.131C367.12 614.823 372.384 587.709 372.594 586.562C372.724 585.9 372.287 585.27 371.625 585.157C370.963 585.028 370.333 585.464 370.204 586.126C370.156 586.401 364.891 613.418 344.43 627.145C333.013 634.8 318.995 636.963 302.749 633.604C270.048 626.822 241.835 614.064 223.167 605.618C208.1 598.803 199.008 594.701 194.906 596.462C191.175 598.06 185.265 612.288 174.283 639.402C163.141 666.904 149.268 701.156 135.348 723.652C134.993 724.217 135.17 724.976 135.736 725.315C135.816 725.364 135.897 725.412 135.994 725.428L136.026 725.444Z" fill="#D8D8D8"/>
<path d="M99.0932 717.079C99.0932 717.079 99.1417 717.079 99.1578 717.095L143.035 728.69C143.681 728.868 144.343 728.48 144.521 727.834C144.698 727.188 144.311 726.51 143.665 726.349L99.7876 714.754C99.1417 714.576 98.4795 714.964 98.3019 715.609C98.1404 716.239 98.4957 716.869 99.0932 717.063V717.079Z" fill="#D8D8D8"/>
<path d="M148.108 540.748L146.548 557.275C146.524 557.533 146.713 557.761 146.971 557.786L280.03 570.34C280.287 570.364 280.516 570.175 280.54 569.918L282.099 553.39C282.124 553.132 281.935 552.904 281.677 552.88L148.618 540.325C148.361 540.301 148.132 540.49 148.108 540.748Z" fill="#28100C"/>
<path d="M132.49 556.412C127.451 555.944 123.349 552.132 122.51 547.142L106.296 450.926C105.311 445.048 110.155 439.832 116.098 440.381L176.092 446.033C180.146 446.42 183.44 449.44 184.167 453.445L204.111 563.162L132.49 556.412Z" fill="#28100C"/>
<path d="M166.79 536.597L166.08 531.429L170.149 531.736L168.922 526.972L174.316 527.392L175.543 532.156L178.87 532.414L177.643 527.65L183.036 528.07L184.264 532.834L188.979 533.19L189.69 538.357L185.62 538.05L186.718 542.427L191.434 542.782L192.144 547.95L188.075 547.643L189.302 552.407L183.908 551.987L182.681 547.223L179.354 546.965L180.582 551.729L175.188 551.309L173.961 546.545L169.245 546.19L168.535 541.022L172.604 541.329L171.506 536.952L166.79 536.597ZM177.998 541.749L181.325 542.007L180.226 537.631L176.9 537.372L177.998 541.749Z" fill="#3E3E3E"/>
<path d="M113.692 466.768C115.097 473.05 120.798 478.541 126.434 479.042C132.07 479.542 135.493 474.843 134.088 468.561C132.683 462.279 126.983 456.788 121.347 456.288C115.711 455.787 112.287 460.486 113.692 466.768Z" fill="#70FF00"/>
<path d="M125.093 465.638C125.368 466.897 125.998 467.947 126.482 467.995C126.967 468.044 127.144 467.059 126.853 465.799C126.579 464.54 125.949 463.49 125.465 463.441C124.98 463.393 124.803 464.378 125.093 465.638Z" fill="#28100C"/>
<path d="M119.764 465.169C120.039 466.429 120.668 467.479 121.153 467.527C121.637 467.576 121.815 466.591 121.524 465.331C121.25 464.071 120.62 463.022 120.136 462.973C119.651 462.925 119.473 463.91 119.764 465.169Z" fill="#28100C"/>
<path d="M125.045 473.196C129.437 473.583 129.341 468.771 129.341 468.722C129.341 468.464 129.114 468.189 128.872 468.109C128.614 468.028 128.42 468.173 128.436 468.448C128.436 468.626 128.485 472.534 124.835 472.211C121.169 471.888 119.441 467.818 119.377 467.657C119.264 467.382 118.989 467.188 118.763 467.237C118.537 467.269 118.44 467.527 118.553 467.802C118.569 467.85 120.669 472.824 125.061 473.212L125.045 473.196Z" fill="#28100C"/>
<path d="M184.167 453.462L203.949 562.274L210.813 562.92L191.03 454.107C190.303 450.102 187.009 447.066 182.956 446.695L176.092 446.049C180.146 446.437 183.44 449.457 184.167 453.462Z" fill="#28100C"/>
<path d="M203.336 561.547C203.336 561.547 203.449 561.547 203.514 561.531C204.063 561.434 204.434 560.902 204.321 560.352L184.764 451.782C184.668 451.233 184.135 450.862 183.586 450.958C183.036 451.055 182.665 451.588 182.778 452.137L202.335 560.708C202.415 561.192 202.851 561.547 203.336 561.547Z" fill="#5A4C54"/>
<path d="M162.349 503.524C163.157 509.547 159.039 513.972 153.144 513.423C147.25 512.874 141.824 507.529 141.016 501.505C140.209 495.481 144.327 491.057 150.221 491.606C156.116 492.155 161.542 497.5 162.349 503.507V503.524Z" fill="white"/>
<path d="M300.876 503.426C301.296 503.426 301.7 503.152 301.829 502.732C313.553 467.737 330.494 380.564 330.655 379.676C330.768 379.127 330.397 378.594 329.848 378.497C329.299 378.384 328.766 378.755 328.669 379.305C328.507 380.177 311.599 467.22 299.907 502.102C299.73 502.635 300.02 503.2 300.537 503.378C300.65 503.41 300.747 503.426 300.86 503.426H300.876Z" fill="#70FF00"/>
<path d="M275.813 500.1C276.313 500.1 276.749 499.728 276.814 499.228C283.952 447.131 313.747 377.011 314.054 376.301C314.28 375.784 314.038 375.187 313.521 374.977C313.004 374.751 312.406 374.993 312.197 375.51C311.89 376.22 281.982 446.582 274.811 498.953C274.731 499.502 275.118 500.019 275.683 500.1C275.732 500.1 275.78 500.1 275.829 500.1H275.813Z" fill="#70FF00"/>
<path d="M347.805 635.995C349.953 635.995 352.262 635.252 354.62 633.782C363.212 628.404 373.612 612.094 377.471 587.806C377.552 587.257 377.181 586.74 376.631 586.643C376.082 586.546 375.566 586.934 375.469 587.483C371.706 611.157 361.742 626.935 353.538 632.07C350.744 633.814 348.096 634.38 345.884 633.701C344.107 633.152 342.718 631.941 341.685 629.971C334.531 616.486 346.966 575.871 347.095 575.468C347.256 574.935 346.966 574.37 346.433 574.208C345.9 574.047 345.335 574.337 345.173 574.87C344.64 576.566 332.367 616.713 339.908 630.924C341.2 633.362 343.025 634.945 345.318 635.639C346.126 635.882 346.966 636.011 347.821 636.011L347.805 635.995Z" fill="white"/>
<path d="M403.861 518.512C402.139 517.066 398.3 517.819 395.361 517.311C391.503 516.648 385.5 516.847 382.147 517.837C377.119 519.333 362.524 524.571 360.629 528.488C358.722 532.417 371.653 528.872 374.318 528.211C376.995 527.539 379.044 528.072 379.044 528.072C379.044 528.072 350.024 538.487 348.864 541.766C347.704 545.045 364.817 540.783 369.035 539.699C369.035 539.699 347.596 548.761 347.516 551.082C347.355 555.725 371.459 546.357 371.459 546.357C371.459 546.357 353.82 554.895 355.297 557.753C356.872 560.792 375.748 551.577 375.748 551.577C375.748 551.577 365.051 558.826 365.209 561.883C365.368 564.94 388.984 551.451 392.372 548.941C395.76 546.431 405.43 540.412 409.232 536.427C411.826 533.723 409.319 523.081 403.839 518.513L403.861 518.512Z" fill="#F79A86"/>
<path d="M383.245 550.523C382.934 550.829 382.444 550.855 382.104 550.579C374.033 544.145 373.573 533.945 373.549 533.523C373.535 533.044 373.912 532.644 374.391 532.63C374.87 532.616 375.27 532.993 375.284 533.472C375.284 533.472 375.757 543.329 383.185 549.245C383.548 549.543 383.621 550.078 383.323 550.463C383.301 550.487 383.268 550.522 383.246 550.546L383.245 550.523Z" fill="#F3796B"/>
<path d="M398.718 535.148C398.486 535.395 398.1 535.475 397.764 535.313C388.319 531.159 382.334 536.612 382.267 536.66C381.922 536.979 381.373 536.972 381.043 536.616C380.724 536.271 380.743 535.734 381.076 535.404C381.353 535.133 387.973 529.101 398.471 533.716C398.91 533.909 399.097 534.418 398.904 534.857C398.85 534.962 398.784 535.055 398.718 535.126L398.718 535.148Z" fill="#F3796B"/>
<path d="M388.484 422.511L388.415 422.49L388.462 422.534L388.659 422.631L389.1 422.87L390.075 423.389C390.749 423.758 391.457 424.137 392.165 424.539C393.583 425.343 395.013 426.18 396.444 427.063C399.295 428.842 402.149 430.711 404.904 432.71C406.281 433.72 407.659 434.731 409.015 435.765C410.359 436.81 411.693 437.868 413.004 438.972C414.316 440.053 415.594 441.192 416.861 442.32C418.128 443.448 419.373 444.599 420.585 445.786C430.344 455.21 438.533 466.016 444.584 477.936C444.971 478.679 445.336 479.422 445.701 480.188C446.077 480.943 446.408 481.698 446.761 482.453L447.018 483.028C446.908 482.792 446.821 482.532 446.71 482.249C446.522 481.695 446.332 481.072 446.222 480.436C446.1 479.788 446.024 479.139 446.017 478.511C445.999 477.895 446.027 477.3 446.069 476.784C446.176 475.753 446.405 474.992 446.564 474.565C446.722 474.115 446.853 473.928 446.864 473.917C446.909 473.892 446.584 474.473 445.988 475.199C445.393 475.925 444.574 476.817 443.608 477.771C442.642 478.724 441.54 479.705 440.346 480.688C437.972 482.689 435.255 484.699 432.423 486.69C426.713 490.651 420.462 494.479 414.071 498.174C410.881 500.027 407.621 501.837 404.338 503.624C402.708 504.529 401.066 505.399 399.423 506.27L394.665 508.798L407.391 543.77L408.997 543.22L410.49 542.696L413.418 541.639C415.35 540.908 417.27 540.166 419.201 539.413C423.029 537.872 426.82 536.253 430.619 534.53C438.194 531.063 445.702 527.244 453.254 522.624C457.025 520.319 460.801 517.798 464.645 514.875C466.566 513.402 468.496 511.825 470.444 510.066C472.403 508.318 474.379 506.363 476.402 504.053C478.413 501.732 480.493 499.055 482.491 495.5C483.478 493.723 484.446 491.684 485.29 489.306C486.124 486.963 486.831 484.189 487.141 481.129C487.301 479.594 487.357 477.981 487.297 476.349C487.226 474.706 487.051 473.032 486.729 471.397C486.407 469.761 485.971 468.152 485.435 466.648C485.173 465.89 484.866 465.157 484.571 464.457L484.205 463.645C483.716 462.563 483.239 461.492 482.739 460.421C482.239 459.351 481.728 458.292 481.195 457.233C480.15 455.116 479.038 453.047 477.892 450.99C476.724 448.957 475.534 446.924 474.288 444.95C473.052 442.964 471.75 441.026 470.426 439.112C469.09 437.209 467.721 435.318 466.308 433.498C460.677 426.146 454.391 419.442 447.667 413.391C444.311 410.36 440.834 407.503 437.248 404.832C433.662 402.162 430.012 399.607 426.23 397.262C424.344 396.084 422.438 394.952 420.498 393.855C418.558 392.758 416.607 391.696 414.602 390.715C412.596 389.712 410.58 388.743 408.485 387.833C407.432 387.373 406.38 386.936 405.282 386.5C404.727 386.287 404.183 386.063 403.594 385.841L401.516 385.079L388.45 422.523L388.484 422.511Z" fill="#70FF00"/>
<path d="M473.576 494.197C473.788 493.643 473.575 492.998 473.052 492.705C465.011 488.097 454.782 485.599 454.356 485.486C453.7 485.334 453.049 485.719 452.897 486.374C452.745 487.03 453.13 487.681 453.785 487.833C453.889 487.864 464.107 490.374 471.857 494.796C472.438 495.122 473.175 494.929 473.512 494.336C473.556 494.289 473.566 494.232 473.587 494.186L473.576 494.197Z" fill="#4A429A"/>
<path d="M467.316 484.477C467.401 484.268 467.417 484.04 467.376 483.801C467.242 483.142 466.612 482.704 465.954 482.837C465.601 482.905 457.093 484.537 454.384 485.668C453.764 485.926 453.476 486.631 453.734 487.252C453.992 487.873 454.698 488.16 455.318 487.902C457.801 486.87 466.321 485.226 466.412 485.223C466.844 485.142 467.167 484.847 467.316 484.477Z" fill="#4A429A"/>
<path d="M416.066 539.608C416.172 539.353 416.152 539.068 415.996 538.81C410.499 529.387 403.459 510.276 403.397 510.083C403.223 509.609 402.701 509.361 402.204 509.536C401.729 509.71 401.482 510.231 401.656 510.706C401.718 510.898 408.819 530.156 414.401 539.725C414.654 540.163 415.218 540.318 415.667 540.053C415.858 539.945 415.991 539.781 416.054 539.596L416.066 539.608Z" fill="#4A429A"/>
<path d="M403.697 765.074C403.956 766.205 404.263 767.319 404.618 768.401C406.992 775.684 411.352 781.498 417.279 783.904C439.726 793.012 460.833 789.863 503.79 788.862C546.73 787.861 578.624 776.492 574.652 741.125C574.329 738.331 573.796 735.731 573.069 733.293C572.116 730.095 570.824 727.205 569.29 724.588C567.498 721.504 565.366 718.791 563.041 716.433C550.993 704.192 532.842 700.187 516.58 705.759C500.527 711.265 472.153 713.93 442.617 714.511C410.884 715.157 399.014 744.807 403.697 765.042V765.074Z" fill="#343434"/>
<path d="M403.698 765.074C403.956 766.205 404.263 767.319 404.618 768.401C412.224 775.038 426.565 779.237 447.349 780.884C453.873 781.417 461.059 781.659 468.778 781.659C486.655 781.659 507.488 780.27 530.242 777.541C549.492 775.232 562.508 768.449 568.951 757.387C573.747 749.151 573.99 740.156 573.069 733.309C572.116 730.111 570.824 727.221 569.29 724.604C570.954 729.724 574.62 744.258 567.465 756.547C561.313 767.125 548.716 773.617 530.032 775.862C462.529 783.969 416.584 780.028 403.698 765.074Z" fill="#70FF00"/>
<path d="M532.034 721.326C545.228 722.392 554.982 734.423 552.818 747.488C552.77 747.746 552.737 747.988 552.673 748.247C549.831 762.474 530.694 762.054 477.563 762.555C435.947 762.942 414.55 748.053 425.628 729.659C434.429 715.028 503.935 719.065 532.034 721.326Z" fill="#70FF00"/>
<path d="M431.668 732.098C451.03 756.208 530 757.565 540.367 739.51C545.422 730.725 544.017 719.453 541.272 710.216C540.981 709.247 540.674 708.294 540.367 707.373C537.525 699.057 533.956 692.985 533.956 692.985C533.956 692.985 534.279 701.576 505.146 698.491C501.819 698.136 498.024 697.991 493.971 698.039C493.212 698.039 492.453 698.055 491.678 698.088C460.268 699.024 414.953 711.282 431.684 732.114L431.668 732.098Z" fill="white"/>
<path d="M495.117 717.725C499.672 722.812 507.601 724.734 518.017 723.264C518.259 723.232 518.485 723.2 518.711 723.167C531.84 721.149 538.236 714.899 541.255 710.216C540.965 709.247 540.658 708.294 540.351 707.374C538.122 711.685 532.244 719.033 517.694 721.068C508.053 722.424 500.802 720.745 496.765 716.239C493.131 712.17 492.162 705.888 493.939 698.023C493.18 698.023 492.421 698.039 491.645 698.072C489.853 706.437 491.048 713.203 495.101 717.725H495.117Z" fill="#FBAB47"/>
<path d="M442.617 714.544C442.617 714.544 424.078 713.171 421.881 703.821C419.685 694.47 462.222 702.674 466.905 683.392C471.604 664.126 452.791 648.752 446.686 654.388C439.451 661.074 455.294 663.916 456.15 673.832C456.86 682.068 451.757 689.658 435.915 690.788C420.073 691.919 412.999 694.373 413.064 701.737C413.145 709.747 425.967 718.016 433.767 718.532C441.567 719.049 442.617 714.544 442.617 714.544Z" fill="white"/>
<path d="M523.96 685.879C523.96 685.879 529.467 678.725 538.413 673.961C539.721 673.267 541.272 674.316 541.11 675.786L539.414 692.193C539.414 692.193 526.56 693.291 523.944 685.895L523.96 685.879Z" fill="white"/>
<path d="M536.281 690.207C537.008 686.493 537.186 682.584 538.042 678.192C538.042 678.192 528.368 683.957 527.803 687.122C527.803 687.122 533.132 691.16 536.281 690.207Z" fill="#5A4C54"/>
<path d="M507.181 686.541C507.181 686.541 499.623 681.987 489.724 680.743C488.109 680.533 486.914 682.245 487.64 683.715L494.407 697.215C494.407 697.215 507.439 694.389 507.165 686.541H507.181Z" fill="white"/>
<path d="M497.281 695.051C495.247 691.854 493.664 688.269 491.274 684.506C491.274 684.506 502.368 686.363 504.064 689.109C504.064 689.109 500.56 694.809 497.281 695.068V695.051Z" fill="#5A4C54"/>
<path d="M531.146 686.17C531.146 686.17 542.596 687.914 541.74 701.334C540.884 714.753 527.819 716.175 527.819 716.175C527.819 716.175 525.494 720.486 517.419 722.231C512.252 723.345 504.565 722.99 502.611 719.194C502.611 719.194 491.403 715.093 491.532 705.096C491.678 694.018 505.017 680.421 531.146 686.17Z" fill="white"/>
<path d="M542.773 717.886C542.773 717.886 538.106 736.926 534.182 740.867C530.274 744.791 526.027 746.955 520.568 747.617C511.767 748.683 513.382 754.561 516.014 756.58C519.05 758.921 524.444 757.581 532.551 757.581C539.544 757.581 546.132 756.192 548.506 751.59C550.864 746.987 550.719 733.39 548.199 725.735C546.649 721.019 544.469 718.549 542.789 717.903L542.773 717.886Z" fill="white"/>
<path d="M483.619 719.146C483.619 719.146 488.286 738.186 492.21 742.126C496.119 746.051 500.398 748.005 505.824 748.877C512.461 749.926 511.848 756.192 510.378 757.84C507.811 760.698 501.948 758.841 493.842 758.841C486.849 758.841 478.581 756.047 476.207 751.444C473.849 746.842 475.674 734.649 478.193 726.995C479.743 722.279 481.924 719.808 483.603 719.162L483.619 719.146Z" fill="white"/>
<path d="M444.522 715.351C444.522 715.351 432.201 712.396 428.228 721.682C421.978 736.28 426.968 744.629 443.618 746.955C460.268 749.28 479.178 752.429 464.886 740.576C450.578 728.739 444.522 715.351 444.522 715.351Z" fill="white"/>
<path d="M510.83 707.842C510.83 707.842 515.804 707.309 517.129 707.923C519.357 708.94 515.772 713.09 513.495 713.446C511.218 713.801 509.006 711.136 509.038 709.392C509.07 707.664 510.83 707.842 510.83 707.842Z" fill="#5A4C54"/>
<path d="M508.279 704.015C508.521 703.869 508.78 704.176 508.602 704.386C507.617 705.565 505.792 707.115 503.321 706.598C501.286 706.162 500.511 704.741 500.237 703.498C500.172 703.223 500.56 703.062 500.689 703.32C501.222 704.241 502.239 705.177 504.226 705.306C505.727 705.403 507.262 704.66 508.279 704.031V704.015Z" fill="#5A4C54"/>
<path d="M527.545 702.997C527.755 702.803 528.062 703.062 527.932 703.304C527.173 704.644 525.672 706.501 523.152 706.453C521.069 706.405 520.052 705.145 519.551 703.966C519.438 703.708 519.777 703.482 519.971 703.708C520.649 704.515 521.828 705.258 523.814 705.016C525.3 704.838 526.689 703.821 527.561 703.013L527.545 702.997Z" fill="#5A4C54"/>
</svg>
