<svg width="663" height="1024" viewBox="0 0 663 1024" fill="none" xmlns="http://www.w3.org/2000/svg">
<circle cx="610" cy="512" r="610" fill="#131313"/>
<path d="M424.303 852.847L414.076 851.559L432.69 658.787L442.916 660.09L424.303 852.847Z" fill="#D79128"/>
<path d="M548.846 852.847L559.057 851.559L540.444 658.787L530.233 660.09L548.846 852.847Z" fill="#D79128"/>
<path d="M543.219 716.742H429.915V722.43H543.219V716.742Z" fill="#D79128"/>
<path d="M553.17 670.393H419.964C414.72 670.393 410.458 666.146 410.458 660.887C410.458 655.628 414.705 651.381 419.964 651.381H553.17C558.414 651.381 562.676 655.628 562.676 660.887C562.676 666.146 558.429 670.393 553.17 670.393Z" fill="#5C4CA0"/>
<path d="M525.526 169.49V310.761C525.526 311.466 526.63 311.466 526.63 310.761V169.49C526.63 168.785 525.526 168.785 525.526 169.49Z" fill="#5C4CA0"/>
<path d="M526.078 313.214C528.915 313.214 531.214 310.914 531.214 308.078C531.214 305.241 528.915 302.941 526.078 302.941C523.241 302.941 520.942 305.241 520.942 308.078C520.942 310.914 523.241 313.214 526.078 313.214Z" fill="#5C4CA0"/>
<path d="M156.971 151V562.071H552.511V151H156.971ZM546.592 365.053H341.341V157.593H546.592V365.053ZM335.407 157.593V365.053H162.889V157.593H335.407ZM162.889 371.645H335.407V555.463H162.889V371.645ZM341.325 555.463V371.645H546.577V555.463H341.325Z" fill="white"/>
<path d="M610.482 555.371H99V573.34H610.482V555.371Z" fill="#343434"/>
<path d="M196.697 496.281C192.649 482.559 182.515 471.596 172.702 461.186C187.681 462.933 201.419 473.007 207.598 486.76C207.659 473.528 213.486 460.419 223.267 451.496C219.572 462.167 217.794 473.513 218.085 484.797C225.951 472.869 238.6 464.191 252.567 461.17C238.6 473.727 227.652 489.611 220.86 507.121C212.535 508.869 203.98 509.467 195.501 508.869L196.697 496.281Z" fill="#3A2F81"/>
<path d="M220.416 482.681C219.48 482.421 218.99 481.148 219.526 480.336C220.078 479.508 221.428 479.554 222.041 480.305C222.332 480.658 222.976 480.274 222.807 479.86C222.547 479.186 222.378 478.465 222.409 477.744C222.44 477.177 222.685 476.518 223.129 476.242C223.344 476.104 223.497 476.058 223.773 476.012C223.712 476.012 223.881 476.012 223.896 476.012C223.957 476.012 224.019 476.012 224.095 476.012C224.233 476.012 224.218 476.012 224.371 476.058C224.417 476.058 224.479 476.089 224.525 476.104C224.678 476.165 224.724 476.196 224.785 476.242C224.969 476.411 224.954 476.38 225.031 476.518C225.077 476.671 225.092 476.733 225.107 476.794C225.399 476.717 225.705 476.625 225.997 476.549C225.736 475.92 225.598 475.23 225.675 474.54C225.705 474.233 225.797 473.927 225.951 473.651C226.089 473.405 226.273 473.191 226.472 473.068C226.855 472.823 227.346 472.777 227.775 472.899C228.22 473.022 228.496 473.252 228.557 473.712C228.848 473.635 229.155 473.543 229.446 473.467C229.216 472.317 229.124 470.906 229.86 469.894C230.014 469.695 230.152 469.542 230.351 469.434C230.535 469.327 230.688 469.281 230.934 469.235C231.087 469.22 231.148 469.22 231.21 469.204C231.317 469.204 231.485 469.204 231.547 469.204C231.593 469.204 231.761 469.25 231.838 469.266C231.884 469.266 231.93 469.296 231.976 469.312C232.068 469.342 232.007 469.312 232.083 469.358C232.175 469.404 232.329 469.496 232.359 469.526C232.359 469.526 232.436 469.603 232.467 469.618C232.681 469.91 232.712 470.002 232.712 470.247C233.003 470.17 233.279 470.094 233.571 470.017C233.095 468.898 233.111 467.411 233.877 466.414C234.061 466.184 234.276 465.985 234.537 465.831C234.659 465.755 234.69 465.755 234.828 465.709C234.935 465.678 235.135 465.632 235.181 465.617C235.717 465.555 236.208 465.647 236.652 465.893C236.775 465.969 236.898 466.046 236.974 466.107C237.036 466.153 237.082 466.215 237.128 466.261C237.174 466.307 237.22 466.368 237.22 466.368C237.296 466.491 237.373 466.613 237.388 466.69C237.434 466.843 237.465 466.966 237.465 467.089L238.37 466.966C237.94 465.954 237.925 464.651 238.63 463.731C238.799 463.516 239.014 463.332 239.259 463.194C239.428 463.102 239.704 463.026 239.888 463.026C240.378 462.995 240.823 463.133 241.237 463.424C241.421 463.547 241.589 463.746 241.697 463.945C241.804 464.145 241.85 464.359 241.819 464.635H242.739C242.693 463.532 243.061 461.998 244.257 461.615C244.503 461.538 244.717 461.538 244.962 461.615C245.208 461.676 245.453 461.814 245.637 461.983C245.836 462.152 245.974 462.351 246.036 462.566C246.097 462.78 246.082 462.934 245.974 463.148L246.818 463.501C247.094 462.458 247.4 461.293 248.213 460.542C248.566 460.22 248.918 460.051 249.348 460.051C249.746 460.051 250.129 460.174 250.467 460.419C250.589 460.511 250.712 460.649 250.804 460.833C250.773 460.772 250.835 460.91 250.835 460.94C250.865 461.17 250.85 461.216 250.835 461.324L251.739 461.446C251.709 461.201 251.739 461.094 251.862 460.91C251.862 460.91 252 460.772 252.031 460.741C252.092 460.695 252.23 460.603 252.337 460.572C252.69 460.419 253.135 460.434 253.426 460.741C253.763 461.078 253.809 461.615 253.687 462.06C253.549 462.596 253.165 462.995 252.644 463.179C251.985 463.409 251.233 463.348 250.605 463.041C250.375 462.934 250.099 462.98 249.976 463.21C249.853 463.424 249.915 463.716 250.145 463.838C250.85 464.221 251.08 465.264 250.589 465.877C250.083 466.506 248.934 466.475 248.458 465.816C248.106 465.325 247.431 465.739 247.661 466.276C247.983 467.027 247.661 467.947 247.124 468.545C246.542 469.189 245.698 469.557 244.87 469.327C244.533 469.22 244.211 469.557 244.303 469.894C244.549 470.845 244.104 471.811 243.368 472.47C242.617 473.129 241.62 473.421 240.685 473.053C240.286 472.899 239.98 473.405 240.164 473.727C240.639 474.555 240.593 475.644 240.01 476.411C239.474 477.116 238.523 477.499 237.649 477.33C237.327 477.269 236.944 477.545 237.082 477.898C237.695 479.6 236.162 481.639 234.337 481.516C233.816 481.47 233.709 482.313 234.215 482.421C234.475 482.482 234.644 482.635 234.721 482.911C234.813 483.203 234.797 483.509 234.69 483.785C234.368 484.537 233.402 484.889 232.681 485.165C232.39 485.273 232.252 485.564 232.405 485.84C233.203 487.342 231.669 489.612 229.952 489.366C229.722 489.336 229.492 489.397 229.4 489.627C229.324 489.811 229.37 490.118 229.584 490.209C229.891 490.332 230.014 490.516 230.075 490.838C230.136 491.114 230.075 491.467 229.937 491.743C229.508 492.525 228.465 492.801 227.683 493.031C227.315 493.138 227.269 493.537 227.484 493.797C227.622 493.981 227.683 494.227 227.683 494.472C227.683 494.717 227.591 494.993 227.468 495.238C227.33 495.468 227.162 495.668 226.947 495.806C226.687 495.974 226.487 496.005 226.181 495.974C225.843 495.928 225.598 496.404 225.782 496.664C226.027 497.017 226.043 497.508 225.721 497.814C225.399 498.121 224.908 498.106 224.571 497.86C224.371 497.722 224.049 497.83 223.942 498.029C223.804 498.259 223.896 498.52 224.111 498.658C224.785 499.133 225.797 499.041 226.38 498.458C226.963 497.876 227.055 496.864 226.579 496.189C226.441 496.419 226.319 496.649 226.181 496.879C227.07 496.986 227.882 496.388 228.296 495.637C228.741 494.824 228.726 493.874 228.158 493.123L227.959 493.889C229.032 493.567 230.336 493.138 230.842 492.019C231.24 491.129 231.102 489.811 230.09 489.382L229.738 490.225C231.01 490.409 232.16 489.78 232.896 488.768C233.601 487.772 233.801 486.438 233.233 485.349L232.957 486.024C234.015 485.625 235.257 485.104 235.641 483.923C235.947 482.988 235.549 481.715 234.491 481.485C234.445 481.792 234.414 482.083 234.368 482.39C236.76 482.574 238.814 479.86 238.002 477.606C237.818 477.79 237.618 477.99 237.434 478.174C238.707 478.404 240.026 477.913 240.807 476.871C241.589 475.828 241.651 474.325 241.007 473.191C240.838 473.421 240.654 473.651 240.486 473.865C243 474.847 245.913 472.133 245.238 469.572C245.054 469.756 244.855 469.956 244.671 470.14C245.836 470.477 247.078 469.971 247.86 469.082C248.673 468.146 249.01 466.889 248.504 465.724C248.244 465.877 247.968 466.031 247.707 466.184C248.351 467.089 249.562 467.38 250.574 466.935C251.586 466.491 252 465.325 251.709 464.298C251.54 463.731 251.172 463.225 250.651 462.934C250.497 463.194 250.344 463.47 250.191 463.731C251.003 464.114 251.939 464.252 252.813 463.991C253.656 463.746 254.315 463.148 254.591 462.32C254.852 461.569 254.729 460.695 254.223 460.066C253.748 459.468 252.935 459.3 252.215 459.53C251.448 459.775 250.758 460.48 250.865 461.324C250.896 461.554 251.019 461.753 251.264 461.784C251.494 461.814 251.709 461.676 251.77 461.446C252.077 460.22 251.019 459.254 249.884 459.054C249.286 458.947 248.658 459.024 248.136 459.361C247.538 459.729 247.078 460.296 246.756 460.925C246.388 461.63 246.174 462.382 245.974 463.148C245.836 463.654 246.557 463.976 246.818 463.501C247.492 462.305 246.496 461.017 245.346 460.649C244.027 460.22 242.785 461.17 242.279 462.336C241.973 463.026 241.835 463.792 241.865 464.543C241.881 465.141 242.724 465.126 242.785 464.543C242.939 463.102 241.513 462.09 240.209 461.998C238.676 461.891 237.511 463.179 237.266 464.605C237.112 465.448 237.189 466.322 237.526 467.104C237.618 467.319 237.787 467.472 238.032 467.441C238.247 467.411 238.446 467.227 238.431 466.981C238.354 465.479 236.898 464.543 235.503 464.559C233.831 464.559 232.666 465.954 232.436 467.533C232.298 468.499 232.436 469.465 232.819 470.354C232.896 470.538 233.157 470.615 233.341 470.569C233.54 470.508 233.678 470.324 233.678 470.124C233.693 468.821 232.39 468.085 231.21 468.131C230.581 468.162 229.968 468.376 229.523 468.806C228.971 469.342 228.634 470.094 228.511 470.845C228.358 471.75 228.434 472.654 228.618 473.559C228.664 473.804 228.956 473.942 229.186 473.881C229.446 473.804 229.554 473.559 229.508 473.313C229.324 472.194 228.097 471.658 227.07 471.78C226.503 471.842 225.966 472.072 225.583 472.501C225.107 473.022 224.877 473.681 224.816 474.371C224.739 475.123 224.893 475.92 225.184 476.625C225.414 477.177 226.165 476.963 226.073 476.38C225.92 475.245 224.663 474.801 223.651 474.954C223.145 475.031 222.639 475.261 222.302 475.659C221.826 476.196 221.612 476.901 221.566 477.591C221.52 478.388 221.719 479.201 221.995 479.952C222.256 479.799 222.516 479.646 222.761 479.508C222.01 478.572 220.554 478.419 219.542 479.017C218.422 479.661 218.192 481.056 218.744 482.16C219.036 482.773 219.588 483.249 220.247 483.417C220.83 483.571 221.075 482.681 220.492 482.528L220.416 482.681Z" fill="#70FF00"/>
<path d="M208.042 484.874C206.969 484.797 205.666 484.214 205.697 482.957C205.697 482.497 205.957 482.129 206.341 482.022C206.54 481.961 206.709 481.961 206.893 482.007C207.077 482.053 207.184 482.129 207.291 482.298L208.012 481.731C207.429 481.133 206.647 480.397 206.601 479.492C206.601 479.155 206.709 478.817 206.923 478.572C207.015 478.45 207.169 478.342 207.276 478.281C207.444 478.204 207.552 478.204 207.705 478.25C208.196 478.373 208.533 477.652 208.058 477.407C207.122 476.916 206.065 475.782 206.494 474.632C206.632 474.264 207 473.927 207.352 473.789C207.582 473.697 207.751 473.666 207.996 473.681C208.119 473.681 208.334 473.773 208.456 473.896C208.84 474.249 209.438 473.804 209.177 473.329C208.87 472.761 208.579 472.179 208.41 471.565C208.272 471.059 208.211 470.446 208.456 469.986C208.64 469.634 208.947 469.342 209.3 469.204C209.622 469.082 209.959 469.066 210.204 469.266C210.588 469.588 211.201 469.189 210.925 468.698C210.373 467.686 209.637 466.168 210.327 465.08C210.542 464.727 210.925 464.451 211.293 464.344C211.676 464.221 212.029 464.252 212.305 464.528C212.473 464.681 212.734 464.712 212.918 464.559C213.087 464.436 213.179 464.145 213.041 463.961C212.473 463.225 211.891 462.075 212.366 461.17C212.535 460.848 212.826 460.588 213.148 460.465C213.501 460.327 213.807 460.327 214.129 460.542L214.589 459.744C213.869 459.3 213.685 458.15 214.237 457.521C214.85 456.831 216.015 456.938 216.567 457.644C216.782 457.429 216.996 457.214 217.226 456.984C216.782 456.494 216.444 455.881 216.368 455.221C216.322 454.915 216.352 454.593 216.46 454.301C216.506 454.163 216.582 454.025 216.659 453.903C216.628 453.949 216.736 453.826 216.736 453.811C216.996 453.581 217.18 453.504 217.41 453.458C217.548 453.427 217.518 453.427 217.671 453.427C217.732 453.427 217.794 453.427 217.87 453.427C217.886 453.427 218.07 453.443 217.978 453.427C218.238 453.473 218.346 453.504 218.545 453.657C218.76 453.918 218.76 453.918 218.79 454.087C218.913 454.577 219.741 454.485 219.695 453.964C219.634 453.213 219.664 452.415 220.048 451.741C220.354 451.204 220.906 450.821 221.519 450.821C221.657 450.821 221.78 450.836 221.903 450.882C222.025 450.928 222.148 451.005 222.194 451.051C222.271 451.128 222.317 451.174 222.378 451.312C222.347 451.25 222.409 451.404 222.409 451.434C222.409 451.45 222.439 451.618 222.439 451.557C222.47 451.802 222.439 452.001 222.347 452.155C222.347 452.17 222.24 452.308 222.286 452.247C222.255 452.293 222.209 452.339 222.163 452.369C222.225 452.323 222.087 452.415 222.071 452.415C222.133 452.385 221.979 452.431 221.964 452.446L222.317 453.289C222.715 453.013 223.359 452.553 223.819 452.814C224.095 452.967 224.203 453.351 224.203 453.703C224.203 454.117 223.942 454.485 223.605 454.792C223.175 455.16 222.639 455.405 222.133 455.651C221.795 455.804 221.872 456.264 222.133 456.448C222.7 456.846 222.685 457.751 222.378 458.318C221.933 459.162 220.998 459.637 220.186 460.082L220.753 460.802C220.86 460.71 220.998 460.68 221.105 460.695C221.305 460.726 221.473 460.818 221.611 460.956C221.964 461.293 221.949 461.814 221.719 462.274C221.427 462.857 220.937 463.286 220.446 463.7C219.91 464.145 219.388 464.574 218.99 465.157C218.744 465.509 219.143 465.923 219.511 465.831C219.634 465.8 219.787 465.816 219.91 465.877C220.063 465.954 220.186 466.076 220.277 466.23C220.492 466.552 220.584 466.966 220.492 467.318C220.232 468.315 219.128 468.882 218.3 469.327C217.886 469.557 218.085 470.185 218.53 470.185C218.852 470.185 219.143 470.385 219.327 470.691C219.542 471.029 219.634 471.443 219.572 471.841C219.419 472.869 218.422 473.651 217.671 474.294C217.41 474.509 217.548 475 217.87 475.061C218.422 475.168 218.99 475.276 219.542 475.383C219.45 475.153 219.358 474.923 219.266 474.708C218.698 475.812 217.978 476.794 217.088 477.637C216.797 477.913 217.012 478.434 217.41 478.419C217.932 478.404 218.438 478.388 218.959 478.358C218.806 478.158 218.668 477.974 218.514 477.775C218.407 478.496 218.146 479.17 217.671 479.722C217.456 479.983 217.518 480.397 217.87 480.489C217.993 480.519 218.07 480.611 218.116 480.734C218.177 480.918 218.177 481.087 218.116 481.271C217.947 481.715 217.395 482.022 216.996 482.267C216.49 482.574 216.95 483.371 217.456 483.065C218.116 482.666 218.898 482.16 219.051 481.347C219.189 480.627 218.882 479.799 218.116 479.584L218.315 480.351C218.882 479.676 219.281 478.863 219.404 477.99C219.45 477.714 219.296 477.392 218.959 477.407C218.438 477.422 217.932 477.438 217.41 477.468L217.732 478.25C218.683 477.346 219.465 476.288 220.063 475.122C220.186 474.877 220.094 474.509 219.787 474.448C219.235 474.34 218.668 474.233 218.116 474.126L218.315 474.892C219.312 474.065 220.446 473.053 220.507 471.657C220.553 470.507 219.772 469.25 218.53 469.235L218.76 470.093C219.91 469.48 221.305 468.622 221.443 467.196C221.565 465.984 220.569 464.62 219.266 464.911C219.434 465.141 219.618 465.371 219.787 465.586C220.247 464.927 220.937 464.482 221.535 463.945C222.133 463.409 222.669 462.703 222.777 461.891C222.884 461.139 222.577 460.45 221.949 460.036C221.366 459.652 220.599 459.637 220.094 460.128C219.695 460.496 220.201 461.093 220.661 460.848C221.688 460.296 222.823 459.637 223.298 458.502C223.712 457.506 223.543 456.249 222.608 455.62V456.417C223.819 455.85 225.26 454.991 225.138 453.458C225.092 452.86 224.801 452.231 224.233 451.94C223.405 451.526 222.562 451.971 221.872 452.446C221.443 452.753 221.703 453.397 222.225 453.289C223.497 453.029 223.727 451.235 222.915 450.392C222.424 449.87 221.627 449.763 220.967 449.932C220.247 450.116 219.618 450.606 219.266 451.266C218.821 452.078 218.744 453.029 218.806 453.918L219.71 453.795C219.434 452.676 218.162 452.277 217.15 452.538C215.831 452.875 215.295 454.209 215.494 455.482C215.632 456.279 216.046 457.015 216.582 457.613C216.751 457.797 217.073 457.782 217.242 457.613C217.441 457.414 217.395 457.153 217.242 456.954C216.552 456.08 215.264 455.896 214.283 456.341C213.255 456.816 212.841 457.996 213.102 459.054C213.255 459.652 213.623 460.189 214.145 460.511C214.651 460.833 215.095 460.036 214.605 459.714C213.593 459.039 212.228 459.622 211.645 460.588C210.894 461.814 211.462 463.378 212.259 464.421C212.504 464.237 212.749 464.053 212.979 463.853C211.967 462.872 210.388 463.439 209.637 464.467C208.594 465.877 209.392 467.809 210.143 469.158L210.864 468.591C209.836 467.732 208.395 468.315 207.736 469.342C206.847 470.737 207.69 472.485 208.38 473.773C208.625 473.589 208.87 473.405 209.1 473.206C208.242 472.424 206.969 472.685 206.187 473.436C205.267 474.31 205.313 475.674 205.957 476.702C206.356 477.33 206.923 477.836 207.582 478.174C207.705 477.898 207.812 477.606 207.935 477.33C206.739 477.024 205.773 478.128 205.666 479.216C205.528 480.473 206.525 481.531 207.337 482.359C207.705 482.727 208.334 482.252 208.058 481.792C207.46 480.795 205.927 480.78 205.206 481.654C204.777 482.16 204.685 482.835 204.807 483.479C204.93 484.122 205.329 484.674 205.85 485.058C206.479 485.518 207.26 485.717 208.027 485.778C208.272 485.794 208.487 485.548 208.487 485.318C208.487 485.058 208.272 484.874 208.027 484.858L208.042 484.874Z" fill="#70FF00"/>
<path d="M197.249 496.741C196.559 497.185 195.516 497.078 194.995 496.388C194.489 495.698 194.642 494.686 195.256 494.134C195.516 493.904 195.378 493.429 195.056 493.368C194.121 493.168 193.186 492.417 193.109 491.405C193.032 490.516 193.86 489.458 194.826 489.642C194.795 489.366 194.75 489.075 194.719 488.799C193.876 489.259 192.741 489.059 192.097 488.354C191.438 487.649 191.392 486.391 191.99 485.64C192.189 485.38 192.158 484.95 191.79 484.874C190.748 484.628 189.399 484.352 188.755 483.417C188.494 483.049 188.387 482.62 188.402 482.175C188.417 481.792 188.586 481.424 188.939 481.225C189.414 480.949 189.077 480.289 188.586 480.381C187.789 480.519 186.93 480.059 186.593 479.354C186.24 478.618 186.47 477.698 187.053 477.162C187.221 477.008 187.221 476.732 187.083 476.548C186.93 476.349 186.7 476.334 186.485 476.426C185.581 476.84 184.431 476.533 183.802 475.797C183.158 475.03 183.143 473.773 183.756 472.976C183.879 472.807 183.94 472.608 183.833 472.409C183.726 472.24 183.511 472.133 183.312 472.194C182.392 472.47 181.349 472.194 180.69 471.489C180.046 470.799 179.847 469.664 180.215 468.79C180.291 468.621 180.307 468.437 180.184 468.284C180.077 468.146 179.877 468.054 179.693 468.115C179.264 468.253 178.819 468.345 178.375 468.315C178.037 468.284 177.608 468.115 177.455 467.87C177.378 467.748 177.332 467.64 177.317 467.502C177.302 467.395 177.317 467.196 177.317 467.119C177.378 466.92 177.409 466.889 177.424 466.858C177.47 466.797 177.501 466.766 177.531 466.751C177.654 466.69 177.7 466.69 177.746 466.674L177.393 465.831C176.121 466.429 174.787 465.264 173.99 464.39C173.744 464.129 173.53 463.853 173.315 463.577C173.085 463.271 172.84 462.949 172.687 462.596C172.579 462.335 172.518 462.044 172.641 461.768C172.733 461.553 172.947 461.354 173.146 461.415C173.361 461.461 173.683 461.354 173.714 461.093C173.79 460.557 174.419 460.296 174.94 460.419C175.692 460.587 176.213 461.323 176.642 461.906C176.796 462.121 177.164 462.259 177.363 461.998C178.16 461.001 179.939 461.139 180.537 462.289C180.705 462.596 181.165 462.581 181.334 462.289C181.794 461.507 182.79 461.109 183.649 461.369C184.554 461.645 185.106 462.596 185.044 463.501C185.014 463.868 185.458 464.068 185.734 463.899C186.209 463.623 186.792 463.684 187.267 463.945C187.758 464.206 188.141 464.681 188.172 465.202C188.172 465.386 188.31 465.616 188.509 465.647C189.414 465.8 190.043 466.644 189.951 467.548C189.905 468.008 190.61 468.161 190.809 467.778C191.1 467.242 191.852 467.012 192.373 467.303C192.925 467.625 193.048 468.391 192.741 468.897C192.542 469.219 192.879 469.725 193.262 469.572C193.937 469.296 194.872 469.097 195.516 469.572C195.746 469.756 195.899 470.017 195.961 470.293C196.022 470.538 195.991 470.799 195.823 470.998C195.654 471.182 195.639 471.473 195.823 471.657C195.991 471.826 196.313 471.841 196.482 471.657C196.605 471.519 196.697 471.504 196.835 471.535C197.034 471.565 197.218 471.688 197.341 471.841C197.693 472.332 197.463 473.114 197.325 473.635C197.617 473.712 197.923 473.804 198.215 473.88C198.414 472.914 199.702 472.255 200.484 472.884C201.158 473.42 201.02 474.693 200.208 475.046C199.794 475.23 199.993 475.95 200.438 475.904C200.775 475.874 200.959 475.904 201.235 476.119C201.434 476.257 201.618 476.518 201.741 476.794C201.971 477.315 201.94 477.913 201.511 478.296C201.756 478.48 202.002 478.664 202.232 478.863C202.6 478.296 203.596 478.235 204.025 478.771C204.455 479.293 204.179 480.274 203.55 480.504C203.673 480.78 203.78 481.071 203.903 481.347C204.087 481.271 204.363 481.547 204.439 481.761C204.608 482.206 204.332 482.773 204.164 483.172C204.056 483.402 204.102 483.662 204.332 483.8C204.531 483.923 204.869 483.862 204.961 483.632C205.298 482.88 205.635 482.022 205.221 481.225C204.869 480.565 204.133 480.259 203.443 480.55C202.968 480.749 203.305 481.577 203.796 481.393C205.037 480.933 205.589 479.277 204.746 478.204C203.918 477.146 202.14 477.299 201.419 478.388C201.112 478.848 201.772 479.277 202.14 478.955C203.596 477.667 202.37 474.77 200.407 474.969L200.637 475.828C201.726 475.352 202.032 473.926 201.588 472.914C201.066 471.703 199.61 471.427 198.521 472.01C197.908 472.332 197.417 472.914 197.279 473.604C197.157 474.187 198.031 474.432 198.169 473.85C198.399 472.945 198.598 471.841 197.893 471.09C197.356 470.523 196.344 470.323 195.777 470.967C195.991 471.182 196.206 471.397 196.436 471.627C197.111 470.845 196.927 469.664 196.206 468.974C195.347 468.146 193.998 468.238 192.971 468.652C193.14 468.882 193.324 469.112 193.492 469.327C194.075 468.391 193.753 467.027 192.787 466.475C191.821 465.923 190.487 466.306 189.966 467.272L190.824 467.502C190.962 466.214 189.981 464.911 188.709 464.712C188.816 464.865 188.939 465.003 189.046 465.156C188.939 463.378 186.792 462.167 185.213 463.056C185.443 463.194 185.673 463.317 185.903 463.455C186.01 462.136 185.106 460.817 183.833 460.434C182.576 460.051 181.135 460.649 180.475 461.768H181.273C180.414 460.127 177.807 459.836 176.642 461.293C176.888 461.323 177.133 461.354 177.363 461.385C176.765 460.557 176.029 459.591 174.94 459.437C174.036 459.299 172.901 459.775 172.748 460.787C172.932 460.679 173.131 460.572 173.315 460.465C172.549 460.281 171.905 460.817 171.659 461.507C171.383 462.274 171.797 463.071 172.227 463.685C173.07 464.88 174.128 466.092 175.523 466.644C176.274 466.95 177.072 466.92 177.807 466.582C178.007 466.49 178.083 466.199 177.991 466C177.899 465.785 177.685 465.693 177.439 465.739C176.336 465.938 176.09 467.334 176.55 468.207C177.179 469.388 178.804 469.342 179.877 468.974C179.709 468.744 179.525 468.514 179.356 468.3C178.819 469.557 179.003 471.029 179.923 472.071C180.797 473.052 182.254 473.436 183.496 473.068C183.342 472.807 183.189 472.547 183.051 472.301C182.131 473.482 182.1 475.199 183.051 476.38C183.971 477.499 185.612 477.79 186.899 477.208L186.332 476.487C185.428 477.315 185.182 478.71 185.719 479.814C186.271 480.918 187.574 481.485 188.755 481.271L188.402 480.427C187.252 481.102 187.175 482.681 187.789 483.739C188.525 485.027 190.135 485.441 191.468 485.763L191.269 484.996C190.365 486.161 190.349 487.848 191.33 488.983C192.25 490.041 193.906 490.271 195.117 489.611C195.455 489.427 195.409 488.845 195.01 488.768C193.523 488.492 192.112 489.795 192.112 491.298C192.112 492.77 193.37 493.981 194.75 494.288L194.55 493.521C193.584 494.38 193.431 495.974 194.213 496.986C194.995 498.013 196.574 498.274 197.647 497.569C198.138 497.247 197.678 496.449 197.187 496.771L197.249 496.741Z" fill="#70FF00"/>
<path d="M178.896 465.417C181.472 466.644 183.91 468.177 186.118 469.986C188.356 471.795 190.38 473.865 192.204 476.088C194.075 478.388 195.716 480.887 197.126 483.494C198.644 486.3 199.917 489.228 200.959 492.233C202.017 495.269 202.86 498.381 203.55 501.524C203.642 501.923 203.719 502.306 203.796 502.705C203.842 502.95 204.133 503.088 204.363 503.027C204.624 502.95 204.731 502.705 204.685 502.46C204.041 499.286 203.228 496.127 202.216 493.046C201.189 489.964 199.963 486.944 198.475 484.061C197.065 481.332 195.424 478.725 193.538 476.303C191.76 474.003 189.751 471.887 187.543 469.986C185.336 468.1 182.913 466.444 180.337 465.11C180.015 464.942 179.693 464.789 179.371 464.635C179.141 464.528 178.865 464.574 178.743 464.804C178.62 465.003 178.681 465.325 178.911 465.432L178.896 465.417Z" fill="white"/>
<path d="M217.686 460.633C216 466.015 214.329 471.412 212.995 476.885C211.676 482.298 210.695 487.817 210.434 493.398C210.281 496.526 210.358 499.654 210.726 502.751C210.756 502.996 210.925 503.211 211.186 503.211C211.416 503.211 211.676 502.996 211.646 502.751C211.002 497.247 211.262 491.681 212.075 486.207C212.903 480.688 214.267 475.26 215.831 469.894C216.705 466.874 217.64 463.868 218.591 460.863C218.775 460.296 217.87 460.051 217.702 460.618L217.686 460.633Z" fill="white"/>
<path d="M241.681 467.395C239.412 469.511 237.158 471.642 234.981 473.85C232.804 476.058 230.688 478.327 228.725 480.718C226.809 483.064 225.015 485.517 223.451 488.109C221.933 490.638 220.615 493.306 219.588 496.081C218.56 498.856 217.84 501.739 217.502 504.683C217.456 505.035 217.426 505.403 217.395 505.756C217.38 506.001 217.625 506.216 217.855 506.216C218.116 506.216 218.3 506.001 218.315 505.756C218.56 502.874 219.189 500.037 220.124 497.308C221.059 494.563 222.301 491.926 223.758 489.412C225.23 486.851 226.932 484.429 228.771 482.129C230.688 479.737 232.742 477.453 234.889 475.26C237.036 473.052 239.259 470.937 241.497 468.836C241.773 468.575 242.049 468.315 242.325 468.054C242.754 467.64 242.11 466.996 241.666 467.395H241.681Z" fill="white"/>
<path d="M239.474 497.431H184.538V510.754C190.518 510.754 195.363 515.599 195.363 521.579V537.402C195.363 546.601 202.814 554.052 212.014 554.052C221.213 554.052 228.664 546.601 228.664 537.402V521.579C228.664 515.599 233.509 510.754 239.489 510.754V497.431H239.474Z" fill="#FCB415"/>
<path d="M241.129 540.729H182.867C182.867 549.008 189.582 555.709 197.846 555.709H226.15C234.429 555.709 241.129 548.993 241.129 540.729Z" fill="#343434"/>
<path d="M186.853 509.819H235.595C236.192 509.819 236.192 508.899 235.595 508.899H186.853C186.256 508.899 186.256 509.819 186.853 509.819Z" fill="#343434"/>
<path d="M197.003 530.824C198.184 529.092 199.349 527.359 200.53 525.627C200.284 525.657 200.039 525.688 199.809 525.719C201.128 527.236 202.278 528.892 203.274 530.64C203.458 530.962 203.872 530.901 204.072 530.64C205.559 528.662 207.23 526.822 209.054 525.151C208.809 525.121 208.564 525.09 208.334 525.059C209.499 526.792 210.45 528.678 211.155 530.655C211.293 531.039 211.768 531.115 211.998 530.763C213.071 529.138 214.313 527.65 215.724 526.301C216.077 525.964 216.445 525.642 216.813 525.32C216.951 525.197 217.104 525.044 217.272 524.967C217.426 524.906 217.502 524.967 217.594 525.075C217.901 525.412 218.116 525.887 218.346 526.271C218.606 526.73 218.867 527.175 219.112 527.65C219.664 528.693 220.186 529.751 220.661 530.824C220.799 531.146 221.305 531.1 221.458 530.824C222.654 528.8 224.049 526.899 225.644 525.167C225.399 525.136 225.153 525.105 224.923 525.075C225.736 526.255 226.533 527.436 227.346 528.601C227.484 528.8 227.744 528.892 227.974 528.77C228.174 528.647 228.281 528.34 228.143 528.141L225.721 524.615C225.567 524.385 225.215 524.293 225 524.523C223.359 526.301 221.903 528.264 220.676 530.364H221.474C221.014 529.322 220.523 528.294 219.986 527.298C219.71 526.776 219.434 526.27 219.128 525.765C218.867 525.32 218.622 524.829 218.284 524.446C217.916 524.017 217.364 523.894 216.843 524.155C216.383 524.385 215.985 524.814 215.601 525.151C214.819 525.857 214.068 526.623 213.378 527.42C212.581 528.325 211.86 529.291 211.201 530.303C211.477 530.334 211.768 530.38 212.044 530.41C211.324 528.356 210.342 526.408 209.131 524.599C208.962 524.339 208.64 524.293 208.41 524.507C206.525 526.24 204.807 528.141 203.29 530.18H204.087C203.06 528.371 201.833 526.654 200.468 525.075C200.254 524.829 199.901 524.937 199.748 525.167C198.567 526.899 197.402 528.632 196.221 530.364C195.884 530.855 196.681 531.315 197.019 530.824H197.003Z" fill="#343434"/>
<path d="M191.76 499.991H221.044C221.642 499.991 221.642 499.071 221.044 499.071H191.76C191.162 499.071 191.162 499.991 191.76 499.991Z" fill="#343434"/>
<path d="M184.247 169.49V237.397C184.247 238.102 185.351 238.102 185.351 237.397V169.49C185.351 168.785 184.247 168.785 184.247 169.49Z" fill="#443923"/>
<path d="M562.615 163.358H141.378V185.743H562.615V163.358Z" fill="#343434"/>
<path d="M562.615 188.671H141.378V211.056H562.615V188.671Z" fill="#343434"/>
<path d="M562.615 213.985H141.378V236.37H562.615V213.985Z" fill="#343434"/>
<path d="M199.088 870.202C213.7 868.331 228.312 866.461 242.938 864.575C247.661 863.977 252.828 863.134 255.956 859.546C256.967 858.396 257.719 856.817 257.305 855.345C256.753 853.367 254.484 852.478 252.475 852.018C240.746 849.35 228.511 851.481 216.674 853.612C208.64 855.054 200.606 856.51 192.572 857.951L199.088 870.187V870.202Z" fill="#70FF00"/>
<path d="M401.213 814.209C409.661 802.127 418.093 790.06 426.542 777.979C429.271 774.084 432.122 769.699 431.57 764.977C431.386 763.459 430.743 761.849 429.378 761.159C427.538 760.224 425.361 761.313 423.674 762.493C413.8 769.377 407.162 779.864 400.768 790.06C396.444 796.975 392.105 803.905 387.782 810.82L401.213 814.224V814.209Z" fill="#70FF00"/>
<path d="M254.407 754.321C245.315 776.384 237.419 798.938 230.765 821.844C228.741 828.79 226.64 836.118 221.443 841.147C211.186 851.098 189.736 853.183 178.651 862.214C188.126 863.272 228.373 858.381 231.685 857.875C235.671 857.261 239.749 858.12 243.782 857.905C247.814 857.691 252.26 855.958 253.686 852.171C254.668 849.549 253.947 846.636 253.794 843.831C253.303 834.601 259.053 826.352 264.327 818.747C280.916 794.844 295.482 768.58 299.545 739.771L254.407 754.306V754.321Z" fill="#F6A472"/>
<path d="M356.688 698.849C366.301 720.682 377.095 741.994 389.008 762.677C392.611 768.948 396.444 775.541 396.475 782.762C396.536 797.052 382.047 807.923 380.882 822.166C390.526 829.449 416.621 786.841 424.042 778.27C426.679 775.219 428.519 770.803 426.771 767.17C425.56 764.64 422.954 763.153 420.838 761.313C413.831 755.272 411.868 745.413 410.029 736.352C404.264 707.834 395.417 679.132 377.448 656.241L356.673 698.865L356.688 698.849Z" fill="#F6A472"/>
<path d="M485.003 373.331C478.886 373.331 473.918 368.364 473.918 362.246C473.918 356.129 478.886 351.161 485.003 351.161C491.121 351.161 496.088 356.129 496.088 362.246C496.088 368.364 491.121 373.331 485.003 373.331ZM485.003 352.02C479.361 352.02 474.777 356.604 474.777 362.246C474.777 367.889 479.361 372.473 485.003 372.473C490.645 372.473 495.23 367.889 495.23 362.246C495.23 356.604 490.645 352.02 485.003 352.02Z" fill="white"/>
<path d="M484.543 305.794C487.196 301.654 493.053 301.531 497.56 303.049C502.068 304.567 506.376 307.265 511.129 307.204C514.211 307.173 517.185 305.962 520.236 305.426C528.47 304.015 537.271 308.109 541.717 315.407C543.204 317.86 544.277 320.681 546.393 322.582C549.168 325.097 553.124 325.48 556.589 326.768C564.608 329.758 570.25 338.512 569.913 347.42C569.652 354.013 566.616 361.265 570.051 366.785C572.151 370.158 576.015 371.737 579.311 373.807C598.967 386.15 590.228 410.834 590.228 410.834C590.228 410.834 567.766 410.896 567.766 410.834C566.785 406.971 565.16 401.512 562.998 398.216C561.572 401.696 561.005 407.078 561.357 410.834C557.172 412.03 552.802 411.693 548.555 410.834C544.308 409.976 540.276 406.357 540.322 401.834C539.831 404.272 539.325 406.71 538.834 409.148C518.734 410.328 498.572 410.374 478.487 409.27C477.521 405.407 476.54 401.543 475.574 397.679C474.148 401.344 472.722 404.993 471.296 408.657C466.543 407.783 461.79 406.894 457.053 406.02C456.7 402.77 456.347 399.519 455.979 396.269C454.768 399.596 453.572 402.923 452.361 406.25C447.363 405.683 442.38 405.131 437.381 404.563C443.698 399.427 439.988 389.216 439.773 380.906C439.589 373.623 442.84 366.31 448.313 361.725C455.289 355.884 466.466 352.802 467.417 343.572C467.816 339.662 466.037 335.906 465.593 332.012C464.55 322.705 484.558 305.809 484.558 305.809L484.543 305.794Z" fill="#3F3622"/>
<path d="M445.875 529.337C472.937 540.683 501.071 549.484 529.773 555.586C528.163 572.972 525.051 590.206 520.497 607.056C517.032 619.874 512.432 632.937 503.08 642.366C488.1 657.453 464.857 659.707 443.637 661.087C410.688 663.218 377.724 665.349 344.775 667.48C323.632 705.979 305.141 745.935 289.518 786.979C259.927 784.143 230.504 779.405 201.511 772.827C215.08 732.213 231.715 692.701 248.335 653.221C253.41 641.17 258.485 629.104 264.71 617.604C268.175 611.196 272.085 604.863 277.681 600.187C284.458 594.514 293.136 591.739 301.676 589.455C320.78 584.334 340.359 580.991 360.076 579.473C371.468 578.599 383.351 578.231 393.439 572.88C398.698 570.105 403.175 566.104 407.622 562.133C420.056 551.032 432.49 539.932 444.909 528.831L445.875 529.337Z" fill="#343434"/>
<path d="M490.691 425.844C500.994 426.55 493.19 426.473 502.635 426.35C515.836 426.182 529.144 425.982 542.008 423.1C548.984 421.536 556.252 419.987 563.013 422.333C583.39 429.401 585.597 453.335 588.005 462.795C594.812 489.534 594.061 527.175 582.577 548.303C572.979 549.652 558.429 543.32 548.831 544.669C544.4 529.137 549.935 518.527 547.497 502.582C544.477 521.119 535.124 537.524 529.742 555.509C529.451 556.505 502.497 552.718 480.02 545.558C460.41 539.318 444.848 529.705 444.848 528.861C444.863 518.788 445.906 505.219 445.921 495.146C436.722 509.849 426.342 523.817 414.904 536.849C406.027 531.314 392.535 516.197 383.657 510.662C396.214 492.631 425.667 441.131 451.625 428.895C469.701 420.371 490.661 425.86 490.661 425.86L490.691 425.844Z" fill="#70FF00"/>
<path d="M576.398 533.247C555.838 521.241 534.082 511.26 511.559 503.533C513.199 497.921 514.518 492.202 515.499 486.422C516.097 482.896 516.572 479.216 515.606 475.766C513.429 467.993 505.242 464.267 497.192 461.998C496.088 461.691 495.322 463.086 496.165 463.853C498.726 466.214 501.501 468.361 504.429 470.262C500.136 467.288 495.552 464.727 490.753 462.657C489.465 462.105 488.146 463.439 488.744 464.696C490.63 468.698 494.111 471.949 498.281 473.451L486.659 467.41C485.877 466.996 484.957 467.656 485.08 468.529C485.739 473.19 489.649 477.361 494.371 478.005C491.811 475.95 488.882 474.356 485.77 473.298C485.494 473.206 485.218 473.129 484.927 473.098C481.768 472.746 481.676 474.325 483.225 476.226C484.543 477.851 486.429 480.918 487.978 482.328C491.673 485.686 491.657 491.512 490.446 496.373C489.25 501.218 487.15 506.032 487.671 511C487.962 513.713 489.066 516.35 490.799 518.466C492.915 521.042 495.843 522.79 498.71 524.477L557.233 558.836C560.99 561.044 565.589 561.274 569.56 559.449L575.248 556.827C578.852 555.172 581.519 551.998 582.547 548.165C584.095 542.369 581.581 536.236 576.398 533.216V533.247Z" fill="#F6A472"/>
<path d="M477.076 328.73C476.754 343.572 477.506 359.548 477.506 359.548L461.208 361.189L476.218 375.877C476.218 375.877 475.558 388.449 476.908 392.942C478.41 397.955 483.378 401.313 488.499 402.402C493.62 403.49 498.925 402.724 504.107 401.972C504.168 409.132 504.23 416.277 504.291 423.437C504.184 423.345 496.732 427.255 483.945 424.419C491.703 441.882 488.315 454.96 507.388 453.902C526.461 452.845 539.708 442.894 543.971 421.935L535.093 422.287C535.093 422.287 531.306 388.173 531.352 378.836C536.734 383.052 544.247 383.727 549.782 379.725C555.332 375.724 557.11 367.046 552.955 361.618C548.785 356.19 535.446 361.863 535.446 361.863L533.606 326.737L477.076 328.73Z" fill="#F6A472"/>
<path d="M483.623 306.269C478.395 309.366 473.013 312.601 469.042 317.277C467.065 319.608 465.562 322.229 464.581 325.127C463.615 327.994 463.109 330.999 462.526 333.958C461.959 336.856 461.346 339.815 460.088 342.499C458.754 345.366 456.669 347.573 454.139 349.444C451.564 351.345 448.804 352.97 446.458 355.163C444.312 357.187 442.487 359.563 441.046 362.139C438.179 367.306 436.829 373.347 437.427 379.234C437.504 379.986 437.611 380.722 437.734 381.458C437.872 382.27 439.099 381.918 438.961 381.12C437.933 375.386 438.884 369.345 441.444 364.132C442.717 361.526 444.373 359.119 446.381 357.018C448.528 354.78 451.104 353.124 453.634 351.361C456.179 349.582 458.57 347.619 460.196 344.952C461.729 342.453 462.588 339.616 463.216 336.78C463.86 333.882 464.305 330.923 465.041 328.04C465.777 325.158 466.85 322.429 468.552 319.976C472.002 315.008 477.245 311.589 482.335 308.522C482.979 308.139 483.608 307.756 484.252 307.372C484.957 306.958 484.313 305.855 483.608 306.269H483.623Z" fill="#3F3622"/>
<path d="M560.391 335.262C562.507 335.553 563.964 337.178 565.006 338.942C566.279 341.088 567.168 343.526 567.904 345.903C568.655 348.371 569.192 350.885 569.514 353.446C569.805 355.761 570.005 358.092 570.526 360.361C571.032 362.553 571.875 364.654 573.301 366.402C574.804 368.226 576.858 369.468 578.805 370.741C582.669 373.255 585.751 376.521 588.265 380.385C591.071 384.708 593.156 389.446 595.18 394.168C595.502 394.92 596.606 394.276 596.284 393.524C592.681 385.184 588.741 376.337 581.182 370.833C579.235 369.407 577.057 368.287 575.279 366.647C573.546 365.037 572.504 362.967 571.906 360.698C571.308 358.444 571.109 356.114 570.833 353.799C570.511 351.207 570.035 348.647 569.299 346.148C568.517 343.48 567.536 340.72 566.11 338.313C564.914 336.305 563.167 334.388 560.729 334.051C560.391 334.005 560.054 334.127 559.947 334.495C559.855 334.787 560.054 335.231 560.391 335.277V335.262Z" fill="#3F3622"/>
<path opacity="0.46" d="M504.107 401.972L521.233 393.877L504.69 413.303L504.107 401.972Z" fill="#BF6F41"/>
<path d="M538.543 373.868C540.812 371.124 543.403 368.671 546.286 366.586C546.562 366.386 546.7 366.034 546.516 365.712C546.362 365.436 545.918 365.282 545.642 365.482C542.667 367.628 539.984 370.143 537.638 372.964C537.117 373.592 538.022 374.497 538.543 373.868Z" fill="#944F2C"/>
<path d="M542.821 370.311C543.02 370.48 543.097 370.556 543.158 370.618C543.235 370.694 543.296 370.771 543.357 370.848C543.403 370.909 543.434 370.94 543.465 370.986C543.572 371.139 543.664 371.292 543.741 371.461C543.756 371.507 543.787 371.553 543.802 371.599C543.848 371.706 543.879 371.814 543.909 371.906C543.971 372.09 544.001 372.258 544.032 372.442C544.032 372.504 544.032 372.565 544.047 372.611C544.047 372.703 544.047 372.795 544.047 372.887C544.047 372.994 544.047 373.086 544.047 373.194C544.001 373.546 543.955 373.746 543.894 373.93C543.787 374.252 544.017 374.62 544.339 374.712C544.691 374.804 545.013 374.589 545.12 374.267C545.734 372.427 544.998 370.357 543.465 369.207C543.189 369.008 542.759 369.161 542.591 369.437C542.407 369.759 542.545 370.097 542.821 370.311Z" fill="#944F2C"/>
<path d="M478.564 384.217C481.998 384.386 485.386 382.5 487.073 379.51C487.472 378.79 486.383 378.161 485.969 378.866C484.482 381.488 481.553 383.083 478.564 382.929C477.751 382.883 477.751 384.156 478.564 384.202V384.217Z" fill="#944F2C"/>
<path d="M492.102 365.543C492.102 367.551 490.952 369.177 489.526 369.177C488.1 369.177 486.95 367.551 486.95 365.543C486.95 363.534 488.1 361.909 489.526 361.909C490.952 361.909 492.102 363.534 492.102 365.543Z" fill="#010101"/>
<path d="M486.95 349.367C487.533 350.379 487.272 351.943 488.299 352.526C488.867 352.848 489.572 352.679 490.201 352.495C493.574 351.529 497.345 350.471 500.473 352.097C497.56 348.08 491.596 346.654 487.195 348.923L486.95 349.367Z" fill="#3F3622"/>
<path d="M492.823 376.398C486.598 376.398 481.523 371.338 481.523 365.098C481.523 358.858 486.583 353.798 492.823 353.798C499.063 353.798 504.123 358.858 504.123 365.098C504.123 371.338 499.063 376.398 492.823 376.398ZM492.823 355.086C487.303 355.086 482.811 359.579 482.811 365.098C482.811 370.618 487.303 375.11 492.823 375.11C498.342 375.11 502.835 370.618 502.835 365.098C502.835 359.579 498.342 355.086 492.823 355.086Z" fill="white"/>
<path d="M475.988 359.18C477.828 357.739 481.032 358.981 481.553 361.235C481.737 362.032 482.964 361.695 482.78 360.897C482.412 359.303 481.124 358.138 479.622 357.601C478.088 357.064 476.386 357.264 475.099 358.276C474.823 358.49 474.869 358.95 475.099 359.18C475.359 359.441 475.727 359.395 476.003 359.18H475.988Z" fill="white"/>
<path d="M503.233 364.271C511.773 364.301 520.313 363.872 528.807 362.967C531.229 362.707 533.652 362.415 536.059 362.078C536.396 362.032 536.58 361.603 536.504 361.296C536.412 360.928 536.059 360.806 535.722 360.852C527.32 362.001 518.856 362.691 510.378 362.921C508.001 362.983 505.625 363.013 503.233 362.998C502.42 362.998 502.405 364.271 503.233 364.271Z" fill="white"/>
<path d="M545.028 359.057C543.143 346.439 539.401 334.725 537.531 322.122C537.362 321.018 537.163 319.838 536.35 319.056C535.323 318.074 533.713 318.044 532.272 318.059C512.218 318.427 492.178 319.592 472.231 321.57C472.661 322.643 473.105 323.717 473.534 324.79L474.807 324.621C477.459 329.849 480.342 335.354 485.463 338.481C491.074 341.916 498.204 341.809 504.628 343.526C511.712 345.412 517.722 349.95 522.383 355.378C527.994 361.909 528.7 364.148 528.73 366.325C528.761 369.177 525.511 371.538 522.812 370.648C526.492 373.332 532.088 370.633 534.035 366.509C534.817 364.853 535.17 363.09 535.292 361.28C540.214 360.667 545.059 359.073 545.059 359.073L545.028 359.057Z" fill="#3F3622"/>
<path d="M485.218 474.003C490.876 475.873 495.905 479.4 499.646 484.03C500.167 484.674 501.056 483.769 500.55 483.125C496.671 478.326 491.428 474.708 485.571 472.761C484.789 472.5 484.451 473.727 485.233 473.987L485.218 474.003Z" fill="#944F2C"/>
<path d="M489.955 469.48C495.72 472.009 500.673 476.195 504.076 481.5C504.521 482.19 505.625 481.546 505.18 480.856C501.669 475.383 496.563 470.998 490.599 468.376C489.863 468.054 489.204 469.142 489.955 469.48Z" fill="#944F2C"/>
<path d="M497.637 467.195C503.463 469.097 508.461 473.175 511.512 478.48C511.926 479.185 513.015 478.557 512.616 477.836C509.396 472.24 504.107 467.962 497.974 465.969C497.192 465.708 496.855 466.95 497.637 467.195Z" fill="#944F2C"/>
<path d="M498.066 486.299C503.156 483.678 508.262 481.041 513.352 478.419C514.088 478.051 513.444 476.947 512.708 477.315C507.618 479.937 502.512 482.574 497.422 485.196C496.686 485.564 497.33 486.667 498.066 486.299Z" fill="#944F2C"/>
<path d="M511.129 504.269L504.337 511.26C503.77 511.843 504.659 512.747 505.242 512.165C507.511 509.834 509.765 507.504 512.034 505.173C512.601 504.591 511.712 503.686 511.129 504.269Z" fill="#944F2C"/>
<path d="M315.444 562.853C314.739 556.184 304.328 508.485 298.947 484.122C297.322 476.763 302.887 469.787 310.415 469.71L415.379 468.683C421.052 468.622 425.959 472.593 427.109 478.143L444.649 562.868H315.46L315.444 562.853Z" fill="#606060"/>
<path d="M441.199 552.764H497.284V562.853H439.022L441.199 552.764Z" fill="#3A2F81"/>
<path d="M374.535 513.928C374.535 518.635 370.717 522.453 366.01 522.453C361.303 522.453 357.485 518.635 357.485 513.928C357.485 509.221 361.303 505.403 366.01 505.403C370.717 505.403 374.535 509.221 374.535 513.928Z" fill="#FCB415"/>
<path d="M413.923 473.896C415.518 473.328 417.266 473.911 418.523 474.969C419.918 476.149 420.838 477.775 421.727 479.354C422.126 480.074 423.23 479.43 422.831 478.71C421.819 476.916 420.761 475.061 419.09 473.788C417.557 472.608 415.472 471.979 413.586 472.654C412.819 472.93 413.157 474.156 413.923 473.88V473.896Z" fill="#F9F9FA"/>
<path d="M442.671 554.068C441.046 554.068 439.896 555.585 439.819 557.103C439.758 558.437 440.478 559.863 441.659 560.522C442.947 561.228 444.511 560.906 445.569 559.94C446.627 558.974 446.949 557.379 446.151 556.137C445.293 554.819 443.56 554.16 442.119 554.865C441.812 555.018 441.72 555.463 441.889 555.739C442.073 556.061 442.456 556.122 442.763 555.969C443.1 555.8 443.483 555.8 443.897 555.923C444.281 556.03 444.618 556.26 444.909 556.597C445.461 557.211 445.477 558.115 444.94 558.759C444.633 559.143 444.235 559.403 443.821 559.541C443.376 559.679 442.993 559.694 442.564 559.541C442.226 559.418 441.828 559.112 441.613 558.805C441.322 558.407 441.184 558.054 441.107 557.548C441.107 557.655 441.107 557.441 441.107 557.441C441.107 557.379 441.107 557.303 441.107 557.226C441.107 557.149 441.107 557.088 441.107 557.027C441.107 557.027 441.138 556.827 441.107 556.919C441.122 556.781 441.168 556.643 441.199 556.521C441.245 556.398 441.26 556.352 441.352 556.199C441.644 555.693 442.119 555.325 442.656 555.325C443.468 555.325 443.483 554.052 442.656 554.052L442.671 554.068Z" fill="#F9F9FA"/>
<path d="M449.187 555.417H489.097C489.909 555.417 489.925 554.144 489.097 554.144H449.187C448.374 554.144 448.359 555.417 449.187 555.417Z" fill="#F9F9FA"/>
<path d="M308.039 472.991C303.7 473.558 300.174 477.452 300.189 481.868C300.189 482.681 301.462 482.696 301.462 481.868C301.462 478.219 304.39 474.739 308.039 474.263C308.376 474.217 308.683 474.003 308.683 473.619C308.683 473.313 308.392 472.945 308.039 472.975V472.991Z" fill="#F9F9FA"/>
<path d="M441.368 572.712C419.979 566.61 402.194 552.013 382.339 542.001C360.306 530.886 335.851 525.489 311.519 521.349C302.213 519.77 292.599 518.359 283.4 520.506C264.741 524.86 251.954 543.458 249.163 562.424C246.373 581.39 251.724 600.586 258.424 618.54C275.366 663.862 301.446 705.749 334.64 740.952C335.116 741.458 335.621 741.979 336.281 742.224C337.415 742.638 338.657 742.117 339.761 741.611C363.894 730.357 389.315 721.879 415.364 716.42C401.351 686.707 389.621 655.935 380.284 624.443C402.73 609.555 423.705 592.46 442.809 573.478L441.337 572.742L441.368 572.712Z" fill="#343434"/>
<path d="M324.429 549.759C329.903 557.027 335.208 564.417 340.344 571.93C345.495 579.473 350.478 587.124 355.293 594.882C360.092 602.609 364.707 610.444 369.138 618.386C373.584 626.328 377.846 634.362 381.925 642.488C386.003 650.614 389.897 658.832 393.608 667.142C394.068 668.185 394.528 669.228 394.988 670.255C395.264 670.883 396.184 671.037 396.736 670.715C397.38 670.331 397.472 669.611 397.196 668.967C393.531 660.642 389.683 652.393 385.65 644.251C381.603 636.064 377.371 627.969 372.955 619.981C368.555 612.023 363.986 604.158 359.233 596.4C354.48 588.642 349.558 580.991 344.468 573.463C339.378 565.935 334.119 558.498 328.691 551.2C328.017 550.296 327.327 549.376 326.652 548.471C326.238 547.919 325.548 547.643 324.904 548.011C324.368 548.333 324.03 549.207 324.444 549.759H324.429Z" fill="#F9F9FA"/>
<path d="M337.845 552.274C340.206 560.446 342.567 568.602 344.944 576.774C345.403 578.338 347.857 577.679 347.397 576.1C345.036 567.928 342.674 559.771 340.298 551.599C339.838 550.035 337.385 550.694 337.845 552.274Z" fill="#F9F9FA"/>
<path d="M346.308 577.771C356.933 575.379 367.604 573.248 378.337 571.377C388.947 569.538 399.618 567.943 410.305 566.624C416.361 565.873 422.432 565.214 428.504 564.647C429.194 564.585 429.777 564.11 429.777 563.374C429.777 562.73 429.194 562.04 428.504 562.101C417.587 563.144 406.686 564.447 395.846 566.011C385.068 567.575 374.335 569.4 363.649 571.5C357.623 572.681 351.613 573.953 345.633 575.302C344.959 575.456 344.576 576.222 344.744 576.866C344.928 577.556 345.633 577.909 346.308 577.756V577.771Z" fill="#F9F9FA"/>
<path d="M261.567 632.553C268.267 644.436 275.167 656.211 282.25 667.863C289.303 679.454 296.54 690.938 303.976 702.299C308.162 708.693 312.393 715.04 316.702 721.357C317.085 721.924 317.821 722.185 318.45 721.817C319.017 721.495 319.293 720.652 318.91 720.069C311.228 708.8 303.746 697.393 296.448 685.879C289.18 674.41 282.112 662.834 275.228 651.136C271.349 644.558 267.547 637.935 263.79 631.281C262.978 629.855 260.785 631.143 261.598 632.569L261.567 632.553Z" fill="#F9F9FA"/>
<path d="M386.754 796.807C392.581 802.188 398.637 807.34 404.908 812.216C400.339 820.955 391.185 827.119 381.357 828.039C380.453 828.131 379.456 828.146 378.72 827.609C377.678 826.843 377.616 825.34 377.678 824.052C378.23 814.132 386.739 796.792 386.739 796.792L386.754 796.807Z" fill="#70FF00"/>
<path d="M204.378 844.95C204.317 852.892 204.577 860.834 205.175 868.745C195.639 871.244 184.921 868.607 177.623 861.968C176.949 861.355 176.259 860.635 176.167 859.73C176.029 858.442 177.102 857.384 178.099 856.572C185.811 850.316 204.363 844.95 204.363 844.95H204.378Z" fill="#70FF00"/>
<path d="M405.122 765.652C404.754 766.878 405.015 768.258 405.736 769.316C406.487 770.42 407.606 771.171 408.955 771.325C409.293 771.355 409.599 771.003 409.599 770.681C409.599 770.313 409.308 770.083 408.955 770.037C408.817 770.006 408.741 770.006 408.679 769.991C408.557 769.96 408.434 769.929 408.311 769.883C408.173 769.822 408.112 769.791 408.066 769.776C407.959 769.715 407.852 769.653 407.744 769.592C407.407 769.362 407.024 768.979 406.794 768.626C406.502 768.181 406.364 767.859 406.257 767.323C406.257 767.307 406.226 767.139 406.242 767.185C406.242 767.246 406.242 767.077 406.242 767.047C406.242 766.924 406.242 766.801 406.242 766.664C406.242 766.602 406.242 766.541 406.242 766.48C406.272 766.265 406.303 766.127 406.349 766.004C406.594 765.222 405.352 764.885 405.122 765.667V765.652Z" fill="#944F2C"/>
<path d="M240.117 833.22C237.388 834.631 236.315 838.326 237.772 841.009C238.155 841.73 239.259 841.086 238.876 840.365C237.741 838.265 238.676 835.413 240.777 834.324C241.497 833.941 240.853 832.852 240.133 833.22H240.117Z" fill="#944F2C"/>
<path d="M330.777 733.193C339.669 728.195 348.593 723.212 357.792 718.766C366.869 714.381 376.236 710.532 385.957 707.865C391.385 706.377 396.92 705.258 402.501 704.629C403.19 704.553 403.773 704.093 403.773 703.357C403.773 702.728 403.19 702.008 402.501 702.084C392.274 703.219 382.308 705.887 372.695 709.536C363.066 713.185 353.79 717.738 344.714 722.583C339.593 725.312 334.533 728.149 329.473 731.001C328.047 731.798 329.32 734.006 330.761 733.193H330.777Z" fill="#F9F9FA"/>
<path d="M439.589 567.299C447.485 572.114 455.059 577.449 462.22 583.291C464.243 584.947 466.237 586.633 468.199 588.366C468.72 588.826 469.487 588.872 469.993 588.366C470.453 587.906 470.514 587.017 469.993 586.572C462.925 580.332 455.427 574.582 447.577 569.369C445.369 567.897 443.131 566.487 440.877 565.107C439.467 564.248 438.194 566.456 439.589 567.299Z" fill="#F9F9FA"/>
<path d="M447.194 569.247C454.615 571.47 461.744 574.551 468.46 578.431C469.885 579.258 471.158 577.051 469.747 576.238C462.863 572.252 455.504 569.078 447.884 566.793C446.305 566.318 445.645 568.787 447.209 569.247H447.194Z" fill="#F9F9FA"/>
<path d="M209.1 765.575C219.02 768.779 229.094 771.554 239.259 773.885C249.424 776.215 259.697 778.086 270.03 779.512C275.918 780.324 281.821 780.984 287.724 781.505C288.414 781.566 288.996 780.876 288.996 780.233C288.996 779.497 288.414 779.021 287.724 778.96C277.421 778.055 267.148 776.691 256.952 774.882C246.726 773.057 236.56 770.803 226.533 768.089C220.906 766.571 215.325 764.916 209.79 763.122C209.131 762.907 208.395 763.367 208.226 764.011C208.042 764.701 208.456 765.36 209.116 765.575H209.1Z" fill="#F9F9FA"/>
<path d="M448.19 440.855C444.802 448.337 442.932 456.34 441.368 464.359C439.773 472.5 437.673 481.025 440.218 489.197C441.506 493.337 443.698 497.155 446.259 500.635C446.673 501.187 447.363 501.463 448.007 501.095C448.558 500.773 448.865 499.914 448.466 499.347C446.289 496.388 444.342 493.199 443.1 489.718C441.766 486.023 441.368 482.206 441.659 478.296C441.95 474.248 442.824 470.262 443.591 466.275C444.342 462.381 445.139 458.502 446.121 454.669C447.225 450.391 448.574 446.16 450.398 442.127C450.674 441.499 450.582 440.763 449.938 440.379C449.386 440.057 448.482 440.211 448.19 440.839V440.855Z" fill="#131313"/>
<path d="M549.996 502.245C551.238 495.315 552.557 488.385 553.952 481.485C555.347 474.586 556.834 467.686 558.383 460.817C559.257 456.938 560.161 453.059 561.097 449.196C561.48 447.601 559.027 446.926 558.643 448.521C557.003 455.374 555.439 462.243 553.952 469.127C552.465 476.012 551.054 482.926 549.72 489.841C548.969 493.751 548.248 497.661 547.543 501.57C547.42 502.245 547.727 502.95 548.432 503.134C549.046 503.303 549.873 502.92 549.996 502.245Z" fill="#131313"/>
<path d="M561.051 456.616C558.444 459.851 556.206 463.347 554.427 467.103C554.136 467.717 554.259 468.483 554.887 468.851C555.439 469.173 556.328 469.02 556.635 468.391C558.322 464.85 560.407 461.476 562.86 458.425C563.289 457.889 563.381 457.153 562.86 456.631C562.415 456.187 561.495 456.095 561.066 456.631L561.051 456.616Z" fill="#4C4099"/>
<path d="M551.989 517.899C561.971 519.693 572.719 521.625 580.523 528.647C582.439 530.379 584.095 532.342 585.368 534.58C586.18 536.006 588.388 534.718 587.56 533.292C582.301 524.108 572.059 519.647 562.185 517.332C559.027 516.596 555.838 516.013 552.664 515.446C551.989 515.323 551.284 515.63 551.1 516.335C550.932 516.948 551.315 517.776 551.989 517.899Z" fill="#4C4099"/>
<path d="M467.693 500.957C471.802 501.095 475.819 502.321 479.315 504.483C480.71 505.342 481.998 503.149 480.603 502.291C476.724 499.899 472.247 498.565 467.693 498.412C466.053 498.35 466.053 500.911 467.693 500.957Z" fill="#4C4099"/>
<path d="M471.327 505.204H471.495C471.664 505.234 471.465 505.219 471.403 505.204C471.511 505.234 471.618 505.234 471.725 505.265C471.94 505.311 472.155 505.357 472.369 505.418C472.584 505.48 472.799 505.541 472.998 505.618C473.105 505.648 473.213 505.694 473.305 505.74C473.351 505.756 473.412 505.786 473.458 505.802C473.335 505.756 473.243 505.71 473.412 505.802C473.811 505.986 474.209 506.2 474.577 506.43C474.669 506.492 474.761 506.553 474.853 506.614C474.899 506.645 474.945 506.676 474.991 506.706C475.022 506.722 475.175 506.844 475.022 506.737C474.868 506.614 475.022 506.737 475.052 506.768C475.098 506.798 475.144 506.844 475.175 506.875C475.267 506.952 475.359 507.044 475.451 507.12C475.942 507.565 476.77 507.642 477.245 507.12C477.69 506.63 477.766 505.802 477.245 505.326C475.589 503.809 473.519 502.919 471.296 502.689C470.637 502.628 469.993 503.318 470.024 503.962C470.054 504.713 470.591 505.158 471.296 505.235L471.327 505.204Z" fill="#131313"/>
<path d="M540.644 439.858C535.492 446.298 528.455 451.143 520.589 453.611C518.351 454.316 516.051 454.838 513.72 455.16C513.046 455.252 512.662 456.125 512.831 456.723C513.03 457.459 513.72 457.705 514.395 457.613C522.935 456.432 531.046 452.599 537.485 446.88C539.279 445.286 540.95 443.538 542.453 441.652C542.882 441.115 542.974 440.379 542.453 439.858C542.008 439.413 541.088 439.321 540.659 439.858H540.644Z" fill="#131313"/>
<path d="M478.962 435.366C480.327 440.517 482.259 445.5 484.712 450.238C485.034 450.851 485.877 451.035 486.46 450.698C487.073 450.33 487.226 449.563 486.92 448.95C484.574 444.412 482.749 439.628 481.431 434.691C481.017 433.112 478.548 433.787 478.978 435.366H478.962Z" fill="#131313"/>
<path d="M500.626 424.189C500.289 429.172 500.81 434.201 502.114 439.015C502.773 441.422 503.631 443.768 504.674 446.052C505.195 447.202 505.763 448.322 506.391 449.425C506.928 450.376 507.495 451.434 508.476 452.001C509.504 452.584 510.73 452.492 511.834 452.247C512.877 452.017 513.889 451.679 514.87 451.265C516.802 450.453 518.565 449.318 520.175 447.969C523.379 445.286 525.863 441.851 528.117 438.371C531.398 433.311 534.556 428.175 537.761 423.069C538.206 422.38 537.102 421.736 536.657 422.425C533.805 426.948 530.969 431.456 528.117 435.979C526.001 439.337 523.778 442.679 520.972 445.485C519.592 446.865 518.074 448.107 516.372 449.088C514.671 450.069 512.662 450.959 510.7 451.143C509.488 451.25 508.691 450.79 508.062 449.778C507.434 448.797 506.897 447.739 506.376 446.681C505.318 444.535 504.429 442.311 503.739 440.027C502.175 434.906 501.546 429.54 501.899 424.204C501.96 423.391 500.688 423.391 500.626 424.204V424.189Z" fill="white"/>
<path d="M509.673 451.097C507.342 452.293 507.204 456.233 509.504 457.49C511.804 458.732 515.1 456.264 514.426 453.734C513.766 451.204 509.504 450.79 508.461 453.197L509.657 451.097H509.673Z" fill="white"/>
</svg>
