<svg width="132" height="132" viewBox="0 0 132 132" fill="none" xmlns="http://www.w3.org/2000/svg">
<g filter="url(#filter0_d_6578_255)">
<circle cx="66" cy="62" r="57" fill="#333333"/>
</g>
<g clip-path="url(#clip0_6578_255)">
<path d="M44.5121 52.8672H95.1258V90.2777H44.5121V52.8672Z" fill="white"/>
<path d="M33.7617 61.4543V93.1926H97.2383V29.716H33.7617V61.4543ZM84.9137 58.9152C86.434 59.268 87.8158 60.0632 88.8848 61.2004C89.4732 61.813 89.9848 62.4952 90.4082 63.2316C90.4082 63.3129 87.666 65.1664 85.9953 66.2023C85.9344 66.243 85.6906 65.9789 85.4215 65.5777C85.1165 65.0515 84.6831 64.6111 84.1619 64.2976C83.6406 63.9841 83.0485 63.8078 82.4406 63.7852C80.516 63.6531 79.277 64.6637 79.2871 66.3242C79.2712 66.7377 79.3659 67.1478 79.5613 67.5125C79.9828 68.391 80.7699 68.9141 83.2379 69.9805C87.7828 71.9355 89.7277 73.2254 90.9363 75.0586C92.2871 77.0898 92.5867 80.3703 91.6727 82.7977C90.657 85.4383 88.1688 87.2309 84.6496 87.825C83.0423 88.0091 81.4183 87.992 79.8152 87.7742C77.3583 87.3692 75.095 86.1896 73.3559 84.4074C72.7719 83.7625 71.6344 82.0816 71.7055 81.9598C71.8909 81.8222 72.086 81.6983 72.2895 81.5891L74.6406 80.2891L76.4637 79.2328L76.8445 79.7965C77.4873 80.7159 78.3053 81.4994 79.2516 82.102C81.2828 83.1684 84.0555 83.0211 85.4266 81.7871C85.8869 81.3349 86.1741 80.7356 86.2381 80.0935C86.3021 79.4514 86.139 78.8072 85.777 78.273C85.2691 77.5672 84.2535 76.973 81.4148 75.734C78.1395 74.3223 76.7277 73.4488 75.4379 72.0574C74.6327 71.1392 74.0382 70.056 73.6961 68.8836C73.4409 67.5442 73.4032 66.1725 73.5844 64.8211C74.2598 61.6574 76.6312 59.4484 80.0945 58.7934C81.6984 58.5949 83.3231 58.6394 84.9137 58.9254V58.9152ZM70.0145 61.5762V64.1762H61.7727V87.6523H55.9277V64.1711H47.6656V61.632C47.6399 60.7564 47.6602 59.8801 47.7266 59.0066C47.7672 58.9609 52.8047 58.9609 58.8984 58.9609H69.984L70.0145 61.5762Z" fill="#007ACC"/>
</g>
<defs>
<filter id="filter0_d_6578_255" x="0" y="0" width="132" height="132" filterUnits="userSpaceOnUse" color-interpolation-filters="sRGB">
<feFlood flood-opacity="0" result="BackgroundImageFix"/>
<feColorMatrix in="SourceAlpha" type="matrix" values="0 0 0 0 0 0 0 0 0 0 0 0 0 0 0 0 0 0 127 0" result="hardAlpha"/>
<feMorphology radius="5" operator="dilate" in="SourceAlpha" result="effect1_dropShadow_6578_255"/>
<feOffset dy="4"/>
<feGaussianBlur stdDeviation="2"/>
<feComposite in2="hardAlpha" operator="out"/>
<feColorMatrix type="matrix" values="0 0 0 0 0 0 0 0 0 0 0 0 0 0 0 0 0 0 0.06 0"/>
<feBlend mode="normal" in2="BackgroundImageFix" result="effect1_dropShadow_6578_255"/>
<feBlend mode="normal" in="SourceGraphic" in2="effect1_dropShadow_6578_255" result="shape"/>
</filter>
<clipPath id="clip0_6578_255">
<rect x="33" y="29" width="65" height="65" rx="7" fill="white"/>
</clipPath>
</defs>
</svg>
